<svg width="111" height="111" viewBox="0 0 111 111" fill="none" xmlns="http://www.w3.org/2000/svg">
<g clip-path="url(#clip0_82_337)">
<path d="M37.3704 110.318C47.4569 110.318 55.6431 102.132 55.6431 92.045V73.7723H37.3704C27.2838 73.7723 19.0977 81.9585 19.0977 92.045C19.0977 102.132 27.2838 110.318 37.3704 110.318Z" fill="#0ACF83"/>
<path d="M19.0977 55.4996C19.0977 45.413 27.2838 37.2268 37.3704 37.2268H55.6431V73.7723H37.3704C27.2838 73.7723 19.0977 65.5861 19.0977 55.4996Z" fill="#A259FF"/>
<path d="M19.0977 18.9541C19.0977 8.86756 27.2838 0.681374 37.3704 0.681374H55.6431V37.2268H37.3704C27.2838 37.2268 19.0977 29.0406 19.0977 18.9541Z" fill="#F24E1E"/>
<path d="M55.6431 0.681374H73.9158C84.0023 0.681374 92.1885 8.86756 92.1885 18.9541C92.1885 29.0406 84.0023 37.2268 73.9158 37.2268H55.6431V0.681374Z" fill="#FF7262"/>
<path d="M92.1885 55.4996C92.1885 65.5861 84.0023 73.7723 73.9158 73.7723C63.8292 73.7723 55.6431 65.5861 55.6431 55.4996C55.6431 45.413 63.8292 37.2268 73.9158 37.2268C84.0023 37.2268 92.1885 45.413 92.1885 55.4996Z" fill="#1ABCFE"/>
</g>
<defs>
<clipPath id="clip0_82_337">
<rect width="109.636" height="109.636" fill="white" transform="translate(0.682129 0.681374)"/>
</clipPath>
</defs>
</svg>
