<svg width="131" height="131" viewBox="0 0 131 131" fill="none" xmlns="http://www.w3.org/2000/svg">
<path d="M128.21 59.8714L71.4501 3.1139C68.1835 -0.154748 62.882 -0.154748 59.6103 3.1139L47.825 14.9012L62.776 29.8522C66.2516 28.6792 70.2349 29.466 73.0041 32.2352C75.7877 35.0219 76.5683 39.0392 75.3665 42.5262L89.7758 56.9364C93.2617 55.7346 97.2853 56.5111 100.068 59.2999C103.961 63.1895 103.961 69.4951 100.068 73.3868C99.1428 74.3123 98.0444 75.0465 96.8355 75.5474C95.6266 76.0483 94.3309 76.3061 93.0223 76.3061C91.7137 76.3061 90.418 76.0483 89.2091 75.5474C88.0002 75.0465 86.9019 74.3123 85.9768 73.3868C84.5869 71.9961 83.6395 70.2253 83.2538 68.2974C82.868 66.3694 83.0612 64.3705 83.809 62.5521L70.3719 49.115L70.3698 84.48C71.3448 84.9601 72.2349 85.596 73.0052 86.3625C76.8958 90.2522 76.8958 96.5557 73.0052 100.454C69.1135 104.343 62.8058 104.343 58.9182 100.454C55.0276 96.5567 55.0276 90.2532 58.9182 86.3625C59.8504 85.4289 60.9591 84.6902 62.1797 84.1896V48.4971C60.9581 47.9978 59.8491 47.2586 58.9182 46.3231C55.9709 43.3778 55.2614 39.0526 56.7731 35.4317L42.0333 20.6919L3.11432 59.6088C1.54417 61.1795 0.662109 63.3094 0.662109 65.5303C0.662109 67.7512 1.54417 69.8811 3.11432 71.4518L59.875 128.209C63.1436 131.478 68.4431 131.478 71.7169 128.209L128.211 71.7154C129.781 70.1443 130.662 68.0142 130.662 65.7932C130.662 63.5722 129.78 61.4422 128.21 59.8714Z" fill="#F34F29"/>
</svg>
