<svg width="959" height="671" viewBox="0 0 959 671" fill="none" xmlns="http://www.w3.org/2000/svg">
<g id="graphic-design">
<path id="grass-bg2" d="M69.923 470.484C79.3452 472.361 105.256 474.99 133.523 470.484C161.79 465.979 188.878 468.607 198.89 470.484C221.856 468.763 270.439 466.354 281.039 470.484C294.289 475.647 373.789 480.809 432.089 475.647C446.812 478.932 484.383 483.531 516.889 475.647C532.789 477.367 566.179 479.776 572.539 475.647C580.489 470.484 706.806 470.953 733.306 475.647C745.967 475.49 771.996 474.239 774.822 470.484C778.356 465.791 778.356 480.809 826.939 475.647C875.522 470.484 849.906 488.318 935.589 470.484C953.255 461.88 977.989 440.917 935.589 425.898C935.589 419.328 930.289 408.158 909.089 416.043C910.855 390.23 890.539 345.363 795.139 372.396C783.333 381.729 770.456 403.061 810.875 415.234C799.158 412.1 776.989 408.79 763.339 416.043C773.35 409.003 787.365 394.923 763.339 394.923C757.156 388.979 739.136 379.717 716.522 390.23C706.806 394.141 688.786 403.371 694.439 409.003C701.506 416.043 664.406 416.981 666.172 409.003C667.939 401.024 694.439 393.985 666.172 383.19C658.499 380.26 653.388 378.904 650.089 378.532C658.008 368.245 660.431 353.504 624.656 352.215C572.539 350.338 543.389 314.669 516.889 333.442C495.689 348.461 501.578 372.865 507.172 383.19V390.23C502.167 383.973 489.506 373.804 478.906 383.19C465.656 394.923 461.239 397.27 451.522 390.23C441.806 383.19 470.956 369.58 451.522 363.479C435.976 358.598 426.2 374.586 423.256 383.19C422.078 379.279 417.073 373.804 406.473 383.19C393.223 394.923 406.473 361.602 379.973 372.396C353.473 383.19 407.356 346.114 353.473 352.215C342.578 351.433 325.559 354.374 344.639 372.396C368.489 394.923 307.539 374.743 312.839 363.479C308.717 358.942 298.529 354.374 290.756 372.396C282.983 390.418 274.562 387.101 271.323 383.19C267.2 379.279 257.013 373.804 249.239 383.19C239.228 393.515 222.209 407.97 234.223 383.19C246.236 358.41 222.151 359.724 208.606 363.479C196.828 344.55 165.323 313.262 133.523 339.544C101.723 365.825 132.639 396.801 152.073 409.003C161.789 410.567 176.453 414.917 157.373 419.797C138.293 424.678 123.512 405.248 118.506 394.923C91.1229 389.604 40.7729 387.133 58.4396 419.797C41.0673 424.334 12.6829 436.13 38.1229 447.018C63.563 457.906 23.9896 459.377 1.02295 458.751C-3.39362 466.573 4.20312 479.87 69.923 470.484Z" fill="#CBE7FC"/>
<path id="grass-bg1" d="M893.149 478.988C885.623 480.372 864.927 482.308 842.349 478.988C819.771 475.668 798.134 477.605 790.137 478.988C771.793 477.72 732.987 475.945 724.52 478.988C713.937 482.792 650.436 486.596 603.869 482.792C592.11 485.213 562.1 488.602 536.135 482.792C523.435 484.06 496.765 485.835 491.685 482.792C485.335 478.988 384.44 479.334 363.273 482.792C353.16 482.677 332.37 481.755 330.112 478.988C327.289 475.53 327.289 486.596 288.484 482.792C249.678 478.988 270.139 492.129 201.7 478.988C187.588 472.648 167.833 457.202 201.7 446.136C201.7 441.294 205.933 433.064 222.867 438.874C221.455 419.854 237.683 386.794 313.884 406.713C323.314 413.589 333.599 429.308 301.315 438.278C310.673 435.968 328.381 433.53 339.284 438.874C331.288 433.686 320.093 423.312 339.284 423.312C344.223 418.932 358.616 412.108 376.679 419.854C384.44 422.736 398.833 429.537 394.318 433.686C388.673 438.874 418.307 439.565 416.896 433.686C415.485 427.808 394.318 422.62 416.896 414.667C423.025 412.507 427.107 411.508 429.742 411.234C423.417 403.655 421.482 392.792 450.057 391.843C491.685 390.459 514.969 364.177 536.135 378.01C553.069 389.076 548.365 407.059 543.897 414.667V419.854C547.895 415.243 558.008 407.75 566.475 414.667C577.058 423.312 580.586 425.041 588.347 419.854C596.108 414.667 572.825 404.638 588.347 400.142C600.765 396.546 608.573 408.327 610.925 414.667C611.866 411.785 615.864 407.75 624.331 414.667C634.914 423.312 624.331 398.759 645.497 406.713C666.664 414.667 623.625 387.347 666.664 391.843C675.366 391.266 688.96 393.433 673.72 406.713C654.67 423.312 703.353 408.442 699.12 400.142C702.413 396.799 710.55 393.433 716.759 406.713C722.968 419.992 729.694 417.548 732.281 414.667C735.574 411.785 743.711 407.75 749.92 414.667C757.917 422.274 771.511 432.926 761.915 414.667C752.319 396.407 771.558 397.376 782.376 400.142C791.784 386.194 816.948 363.14 842.349 382.506C867.749 401.871 843.054 424.695 827.532 433.686C819.771 434.839 808.059 438.044 823.299 441.64C838.539 445.237 850.345 430.92 854.343 423.312C876.216 419.393 916.433 417.571 902.321 441.64C916.198 444.983 938.87 453.675 918.549 461.697C898.229 469.72 929.838 470.804 948.183 470.343C951.711 476.106 945.643 485.905 893.149 478.988Z" fill="#2076B8"/>
<g id="desktop">
<rect id="Rectangle 97" x="110" y="117" width="369" height="228" fill="white" stroke="#444E55" stroke-width="2"/>
<rect id="Rectangle 108" x="276" y="210" width="79" height="9" rx="4.5" fill="#B1B1B1"/>
<path id="Line 12" d="M466 238C466.552 238 467 237.552 467 237C467 236.448 466.552 236 466 236L466 238ZM276 238L466 238L466 236L276 236L276 238Z" fill="#D9D9D9"/>
<path id="Line 13" d="M466 252C466.552 252 467 251.552 467 251C467 250.448 466.552 250 466 250L466 252ZM276 252L466 252L466 250L276 250L276 252Z" fill="#D9D9D9"/>
<path id="Line 14" d="M345 266C345.552 266 346 265.552 346 265C346 264.448 345.552 264 345 264L345 266ZM276 266L345 266L345 264L276 264L276 266Z" fill="#D9D9D9"/>
<line id="Line 11" x1="109" y1="143" x2="480" y2="143" stroke="#444E55" stroke-width="2"/>
<circle id="Ellipse 49" cx="123" cy="130" r="3" fill="#444E55"/>
<circle id="Ellipse 50" cx="134" cy="130" r="3" fill="#444E55"/>
<circle id="Ellipse 51" cx="145" cy="130" r="3" fill="#444E55"/>
<rect id="Rectangle 107" x="142" y="182" width="115" height="115" fill="#B1B1B1"/>
</g>
<g id="mobile">
<ellipse id="Ellipse 55" cx="468" cy="541" rx="187" ry="22" fill="#B1B1B1"/>
<rect id="Rectangle 93" x="361" y="60" width="253" height="490" rx="20" fill="#444E55"/>
<rect id="Rectangle 94" x="375" y="106" width="223" height="431" rx="12" fill="white"/>
<g id="burger">
<path id="Line 15" d="M576 132C576.552 132 577 131.552 577 131C577 130.448 576.552 130 576 130L576 132ZM556 132L576 132L576 130L556 130L556 132Z" fill="#B1B1B1"/>
<path id="Line 16" d="M576 139C576.552 139 577 138.552 577 138C577 137.448 576.552 137 576 137L576 139ZM556 139L576 139L576 137L556 137L556 139Z" fill="#B1B1B1"/>
<path id="Line 17" d="M576 146C576.552 146 577 145.552 577 145C577 144.448 576.552 144 576 144L576 146ZM556 146L576 146L576 144L556 144L556 146Z" fill="#B1B1B1"/>
</g>
<rect id="Rectangle 95" x="463" y="82" width="49" height="6" rx="3" fill="white"/>
<rect id="Rectangle 96" x="518" y="82" width="6" height="6" rx="3" fill="white"/>
<rect id="Rectangle 98" x="396.5" y="167.5" width="179" height="28" rx="14" fill="#F6F6F6" stroke="#B1B1B1"/>
<rect id="Rectangle 99" x="396" y="230" width="35" height="35" fill="#B1B1B1"/>
<rect id="Rectangle 100" x="396" y="298" width="35" height="35" fill="#B1B1B1"/>
<rect id="Rectangle 101" x="396" y="366" width="35" height="35" fill="#B1B1B1"/>
<rect id="Rectangle 102" x="396" y="434" width="35" height="35" fill="#B1B1B1"/>
<rect id="Rectangle 103" x="446" y="234" width="74" height="8" rx="4" fill="#B1B1B1"/>
<path id="Line 3" d="M576 252C576.552 252 577 251.552 577 251C577 250.448 576.552 250 576 250L576 252ZM446 252L576 252L576 250L446 250L446 252Z" fill="#B1B1B1"/>
<path id="Line 4" d="M576 261C576.552 261 577 260.552 577 260C577 259.448 576.552 259 576 259L576 261ZM446 261L576 261L576 259L446 259L446 261Z" fill="#B1B1B1"/>
<rect id="Rectangle 104" x="446" y="302" width="74" height="8" rx="4" fill="#B1B1B1"/>
<path id="Line 5" d="M576 320C576.552 320 577 319.552 577 319C577 318.448 576.552 318 576 318L576 320ZM446 320L576 320L576 318L446 318L446 320Z" fill="#B1B1B1"/>
<path id="Line 6" d="M576 329C576.552 329 577 328.552 577 328C577 327.448 576.552 327 576 327L576 329ZM446 329L576 329L576 327L446 327L446 329Z" fill="#B1B1B1"/>
<rect id="Rectangle 105" x="446" y="370" width="74" height="8" rx="4" fill="#B1B1B1"/>
<path id="Line 7" d="M576 388C576.552 388 577 387.552 577 387C577 386.448 576.552 386 576 386L576 388ZM446 388L576 388L576 386L446 386L446 388Z" fill="#B1B1B1"/>
<path id="Line 8" d="M576 397C576.552 397 577 396.552 577 396C577 395.448 576.552 395 576 395L576 397ZM446 397L576 397L576 395L446 395L446 397Z" fill="#B1B1B1"/>
<rect id="Rectangle 106" x="446" y="438" width="74" height="8" rx="4" fill="#B1B1B1"/>
<path id="Line 9" d="M576 456C576.552 456 577 455.552 577 455C577 454.448 576.552 454 576 454L576 456ZM446 456L576 456L576 454L446 454L446 456Z" fill="#B1B1B1"/>
<path id="Line 10" d="M576 465C576.552 465 577 464.552 577 464C577 463.448 576.552 463 576 463L576 465ZM446 465L576 465L576 463L446 463L446 465Z" fill="#B1B1B1"/>
<rect id="Rectangle 109" x="396.5" y="128.5" width="29" height="19" stroke="#B1B1B1"/>
</g>
<g id="man-sits">
<ellipse id="Ellipse 56" cx="610" cy="649" rx="187" ry="22" fill="#B1B1B1"/>
<g id="man-couch">
<path d="M766 493C760.4 479 687.333 454.5 651.5 444C642 449.5 622.2 460.7 619 461.5C615.8 462.3 614.333 465.833 614 467.5L573 500.5C532 526.333 447.6 579.7 438 586.5C428.4 593.3 434 613 438 622C443.5 621.667 454.8 620.8 456 620C457.5 619 495 627 502 628.5C509 630 512.5 636.5 519.5 644C526.5 651.5 590 657 596 657C602 657 653 659.5 695 649C737 638.5 721.5 638.5 729 632.5C736.5 626.5 731.5 629.5 737 624.5C742.5 619.5 741.5 618 751 608.5C760.5 599 759 596 763 586.5C767 577 781.5 562 781.5 559V554V545C780 541.5 780.4 532.6 778 525C777.667 522 771.6 507 766 493Z" fill="#444E55"/>
<path d="M778 525C777.667 522 771.6 507 766 493C760.4 479 687.333 454.5 651.5 444C642 449.5 622.2 460.7 619 461.5C615.8 462.3 614.333 465.833 614 467.5L573 500.5C532 526.333 447.6 579.7 438 586.5C428.4 593.3 434 613 438 622C443.5 621.667 454.8 620.8 456 620C457.5 619 495 627 502 628.5C509 630 512.5 636.5 519.5 644C526.5 651.5 590 657 596 657C602 657 653 659.5 695 649C737 638.5 721.5 638.5 729 632.5C736.5 626.5 731.5 629.5 737 624.5C742.5 619.5 741.5 618 751 608.5C760.5 599 759 596 763 586.5C767 577 781.5 562 781.5 559C781.5 556.6 781.5 554.667 781.5 554V545C780 541.5 780.4 532.6 778 525ZM778 525C777 523.667 775.6 517.4 778 525ZM651.5 545C650.333 546.333 647.9 550 647.5 554C656.667 549.833 678 542.2 690 545C664.667 548 612.2 562.2 605 595C609.167 590.833 619.7 582.4 628.5 582C622.833 583.333 608.4 589.4 596 603C600.333 603.833 610 610.9 614 632.5C605 600 599.5 599.402 545 595C532 589.333 504.8 587.1 500 623.5C500.167 612.667 506.1 590.1 528.5 586.5C556.5 582 566 622.5 651.5 545Z" stroke="#293842"/>
</g>
<g id="man-shoes">
<path d="M354.5 581.5C355.667 583.833 358.6 590.1 361 596.5C361.341 596.945 361.668 597.448 361.981 598L368.5 599.5C371.875 597.9 372.906 600.167 373 601.5V609L386 620.5C383.5 631.5 395.5 658.5 394 657.5C392.8 656.7 384.5 663.833 380.5 667.5C376.1 671.1 367.333 669 363.5 667.5C360.7 665.9 352 649.833 348 642C346.174 639.717 344.467 637.136 342.922 634.5C329.448 631.333 302.4 620.8 302 604C301.544 602.176 302.336 597.941 308.546 594.479C309.067 594.03 309.715 593.696 310.5 593.5C315.3 592.3 327.167 595 332.5 596.5L333.251 598C334.188 588.847 337.72 583.74 339 581.5C340.6 578.7 346.667 578.333 349.5 578.5L354.5 581.5Z" fill="#272727"/>
<path d="M386 620.5C378.667 615.167 363.4 602.9 361 596.5M386 620.5C383.5 631.5 395.5 658.5 394 657.5C392.8 656.7 384.5 663.833 380.5 667.5M386 620.5L373 609V601.5C372.906 600.167 371.875 597.9 368.5 599.5L361.981 598M361 596.5C358.6 590.1 355.667 583.833 354.5 581.5L349.5 578.5C346.667 578.333 340.6 578.7 339 581.5C337.72 583.74 334.188 588.847 333.251 598M361 596.5C361.341 596.945 361.668 597.448 361.981 598M380.5 667.5C376.1 671.1 367.333 669 363.5 667.5C360.7 665.9 352 649.833 348 642C346.174 639.717 344.467 637.136 342.922 634.5M380.5 667.5C382 665 384.1 658.4 380.5 652C376.833 646.5 369.3 634.9 368.5 632.5C368.189 623.934 366.451 605.878 361.981 598M310.5 593.5C315.3 592.3 327.167 595 332.5 596.5L333.251 598M310.5 593.5C304.5 595 306.5 604.5 312 612.5C317.5 620.5 328.921 628.5 340.711 630.5M310.5 593.5C302.5 597.1 301.5 602 302 604C302.4 620.8 329.448 631.333 342.922 634.5M340.711 630.5C337.966 625.242 335.951 620.258 335 617.5C333.02 609.579 332.725 603.149 333.251 598M340.711 630.5C341.403 631.826 342.142 633.17 342.922 634.5" stroke="#A4A4A4"/>
</g>
<path id="man-shirt" d="M611 468.5L623.5 466.5C617.5 471.5 622 475 623.5 475H631.5C643.9 473.4 651.167 462.5 654 456.5L655.5 457C659.9 459.4 662.667 461 663.5 461.5L681 471.5C692.5 477.5 691 499.5 689.5 507.5C676.3 492.7 659.667 499.5 652 504C652.167 515.5 650.8 538.8 652 546C653.2 553.2 641.167 560 635 562.5C634 562.333 631.5 561.7 629.5 560.5C627 559 627 559.5 626 557.5C625.2 555.9 622.5 555.333 622 554.5C620.167 554.5 617.592 552.841 616 553C601 554.5 599 550 594 548C590 546.4 578 543.333 572.5 542C571.667 541.833 570.5 541.2 572.5 540L577.5 537C580.5 536 577.5 537 584.5 528.5C586.1 527.3 586.333 519.667 586.5 517.5C584.5 515 583 512.5 583 509.5V502.5C582.2 500.1 574 495.167 570 493C587.6 475 604.667 469.167 611 468.5Z" fill="#1B2E35" stroke="#084764"/>
<g id="man-pants">
<path d="M571.5 541.5C573.167 541 578 540.7 584 543.5C589.833 544.167 602.1 546.2 604.5 549C604.167 550 621.5 553.5 621.5 553.5C633.5 559 630.3 561.6 633.5 562C636.7 562.4 634.833 563.167 633.5 563.5C626.5 567.5 610.9 579.3 604.5 594.5L598 602.5C596.167 602.5 590.8 601.7 584 598.5C574.833 597.833 555.8 596.9 553 598.5C550.2 600.1 551.833 598.167 553 597C549.5 596.5 542 594.9 540 592.5L509 579C503.5 586.5 483.4 603.4 447 611C429.333 624.333 394 652.2 394 657C390.167 648 381.8 633.6 385 626L373 608V602.5C385.667 600.5 409.5 592.5 417.5 590C418.364 589.554 417.758 589.59 418.68 589.111C418.746 589.076 418.812 589.042 418.878 589.008C419.006 588.659 419.204 588.037 419.5 587C420.3 584.2 452.167 549.167 468 532C469.2 527.2 526.833 536.333 555.5 541.5C567.9 543.1 571.333 542.167 571.5 541.5Z" fill="#385A64"/>
<path d="M571.5 541.5C573.167 541 578 540.7 584 543.5C589.833 544.167 602.1 546.2 604.5 549C604.167 550 621.5 553.5 621.5 553.5C633.5 559 630.3 561.6 633.5 562C636.7 562.4 634.833 563.167 633.5 563.5C626.5 567.5 610.9 579.3 604.5 594.5L598 602.5C596.167 602.5 590.8 601.7 584 598.5C574.833 597.833 555.8 596.9 553 598.5C550.2 600.1 551.833 598.167 553 597C549.5 596.5 542 594.9 540 592.5L509 579C503.5 586.5 483.4 603.4 447 611M571.5 541.5C571.5 548.7 534.167 540.5 515.5 535.5C507.5 532.7 497.5 540.333 493.5 544.5C491.183 550.291 444.271 575.803 418.68 589.111M571.5 541.5C571.333 542.167 567.9 543.1 555.5 541.5C526.833 536.333 469.2 527.2 468 532C452.167 549.167 420.3 584.2 419.5 587C418.7 589.8 418.62 589.574 418.68 589.111M447 611C410.6 618.6 390 626 385 626M447 611C429.333 624.333 394 652.2 394 657C390.167 648 381.8 633.6 385 626M385 626L373 608V602.5C385.667 600.5 409.5 592.5 417.5 590C418.364 589.554 417.758 589.59 418.68 589.111" stroke="#28434D"/>
</g>
<g id="man-skin">
<path d="M607.5 429L605 416C606.333 413.5 612.5 406.6 616.5 405C621.5 403 632.5 404 637 405C641.5 406 648 422.5 648.5 423C649 423.5 650 421.5 652.5 421C655 420.5 656 422 657 425.5C658 429 654.5 435 652.5 437.5C650.5 440 651.5 449 652.5 452.5C653.3 455.3 655.167 457 656 457.5C661.011 465.294 646 470.5 641 472.5L637.5 474C626.5 478.414 621.333 472.5 620.5 470.5C619.833 468.9 623.031 466.5 624.713 465.5C624.467 464.485 624.217 463.536 624 462.759C620.753 462.902 619.636 462.045 619.5 461.5C608.7 446.7 607.667 436 608.5 432.5L607.5 429Z" fill="#DD866A"/>
<path d="M688.5 507C688.333 518.167 682.4 542.4 660 550C653.833 546.333 640.6 536.9 637 528.5C632.5 518 620.5 491.5 614.5 486.5C612 486.833 605.7 486.7 600.5 483.5V486.5H602.5C602.833 487.833 602.4 490.5 598 490.5C593.6 490.5 589.5 487.833 588 486.5H583V483.5C582.333 482.5 582.2 478.9 587 472.5C581.667 475 570.4 479.4 568 477C568.167 475.833 573.1 471.9 591.5 465.5C601.833 466.167 623.1 469.4 625.5 477C633.333 486.333 652 504.896 652.5 505C656 502 672.5 493 688.5 507Z" fill="#DD866A"/>
<path d="M540 514.5C548 511.7 564.667 500 572 494.5C583 502 583 501 583 513C576 515.5 565 522.6 561 525C557 527.4 555.667 528.333 555.5 528.5C554.557 530.033 553.59 531.169 552.662 532C550.442 533.989 545.94 538.735 545 538.5H531.5C527.833 535.167 520.9 527.8 522.5 525C524.1 522.2 529.167 521.833 531.5 522L540 514.5Z" fill="#DD866A"/>
<path d="M624 462.759C620.753 462.902 619.636 462.045 619.5 461.5C608.7 446.7 607.667 436 608.5 432.5L607.5 429L605 416C606.333 413.5 612.5 406.6 616.5 405C621.5 403 632.5 404 637 405C641.5 406 648 422.5 648.5 423C649 423.5 650 421.5 652.5 421C655 420.5 656 422 657 425.5C658 429 654.5 435 652.5 437.5C650.5 440 651.5 449 652.5 452.5C653.3 455.3 655.167 457 656 457.5C661.011 465.294 646 470.5 641 472.5M624 462.759C624.723 462.727 625.553 462.646 626.5 462.5C631.7 461.7 637 458.833 639 457.5C636.667 459.339 630.4 462.967 624 462.759ZM624 462.759C624.217 463.536 624.467 464.485 624.713 465.5M652.5 505C652 504.896 633.333 486.333 625.5 477C623.1 469.4 601.833 466.167 591.5 465.5C573.1 471.9 568.167 475.833 568 477C570.4 479.4 581.667 475 587 472.5C582.2 478.9 582.333 482.5 583 483.5V486.5H588C589.5 487.833 593.6 490.5 598 490.5C602.4 490.5 602.833 487.833 602.5 486.5H600.5V483.5C605.7 486.7 612 486.833 614.5 486.5C620.5 491.5 632.5 518 637 528.5C640.6 536.9 653.833 546.333 660 550C682.4 542.4 688.333 518.167 688.5 507C672.5 493 656 502 652.5 505ZM652.5 505C663.927 507.381 670.5 518 670.5 518C670.5 518 664.5 507.5 652.5 505ZM624.713 465.5C625.601 469.166 624.567 473.667 625.5 474C632.5 476.5 633.5 474.198 641 472.5M624.713 465.5C623.031 466.5 619.833 468.9 620.5 470.5C621.333 472.5 626.5 478.414 637.5 474L641 472.5M552.662 532C550.442 533.989 545.94 538.735 545 538.5H531.5C527.833 535.167 520.9 527.8 522.5 525C524.1 522.2 529.167 521.833 531.5 522L540 514.5C548 511.7 564.667 500 572 494.5C583 502 583 501 583 513C576 515.5 565 522.6 561 525C557 527.4 555.667 528.333 555.5 528.5C554.557 530.033 553.59 531.169 552.662 532ZM552.662 532C555.275 527.5 557.5 517.9 545.5 515.5" stroke="#C87062"/>
</g>
<path id="Vector 194" d="M620.028 447.5L633 443.114C631.885 449.438 627.088 457.962 620.028 447.5Z" fill="#A6806E"/>
<path id="Vector 195" d="M632 446.015C629.545 445.839 623.982 446.345 623 451C624.909 452.763 629.709 454.478 632 446.015Z" fill="#FDD2BE"/>
<g id="man-hair">
<path d="M607 417C605.4 419.4 606.333 424.667 607 427C599 419.8 601.667 411.667 604 408.5C601 409 600 416.5 600 414C600 412 601.333 406.167 602 404C606 397 608.667 396.333 612.5 394C613.833 393.333 619.5 391.8 631.5 391C646.5 390 655 402 656 404C659.2 413.2 659 418.5 659 421.5C659 426 657 433.333 656 435.5C653.6 436.3 652.333 439.333 652 441.5V437.5C652 436.3 654.667 433.333 656 432C657 429.167 657.8 423.1 653 421.5C647 419.5 646 429.5 644.5 427C644.422 426.87 644.363 426.77 644.319 426.694C644.509 427.106 644.579 427.675 641 423.5C638.6 420.7 635 413.333 633.5 410C626.3 407.6 616.5 411 612.5 413C611.333 413.333 608.6 414.6 607 417Z" fill="#1C2D35"/>
<path d="M656 404C659.2 413.2 659 418.5 659 421.5C659 426 657 433.333 656 435.5C653.6 436.3 652.333 439.333 652 441.5C652 440.667 652 438.7 652 437.5C652 436.3 654.667 433.333 656 432C657 429.167 657.8 423.1 653 421.5C647 419.5 646 429.5 644.5 427C643.3 425 646.571 430 641 423.5C638.6 420.7 635 413.333 633.5 410C626.3 407.6 616.5 411 612.5 413C611.333 413.333 608.6 414.6 607 417C605.4 419.4 606.333 424.667 607 427C599 419.8 601.667 411.667 604 408.5C601 409 600 416.5 600 414C600 412 601.333 406.167 602 404C606 397 608.667 396.333 612.5 394C613.833 393.333 619.5 391.8 631.5 391C646.5 390 655 402 656 404ZM656 404C656.333 402.833 658 405.6 656 404ZM656 404C655.833 406.5 656.8 405.6 656 404Z" stroke="#3A3A3A"/>
</g>
<path id="man-laptop" d="M509 475L454 472.5C452.8 474.9 469.167 514.833 477.5 534.5L531.5 541.5L584 546V545L533.5 537C521.1 498.6 512 479.667 509 475Z" fill="#E5E5E5" stroke="#A1A1A1"/>
<circle id="Ellipse 57" cx="615" cy="432" r="2" fill="#1B2E35"/>
<path id="Vector 192" d="M612 426C612.972 425.381 615.333 424.421 617 425.536C615.611 423.523 612.667 420.799 612 426Z" fill="#1B2E35" stroke="#3A3A3A"/>
<path id="Vector 193" d="M623 424C623.972 423.587 626.333 422.947 628 423.69C626.611 422.349 623.667 420.533 623 424Z" fill="#1B2E35" stroke="#3A3A3A"/>
<circle id="Ellipse 58" cx="626" cy="431" r="2" fill="#1B2E35"/>
<path id="Polygon 1" d="M620.074 432.598L621.39 440.691L615.901 439.656L620.074 432.598Z" fill="#C2604C"/>
</g>
<g id="gears">
<path id="gear5" fill-rule="evenodd" clip-rule="evenodd" d="M636.167 224.492L643.789 235.286C647.804 234.766 651.912 234.752 656.018 235.282L663.641 224.487C666.742 225.221 669.825 226.211 672.864 227.47C675.903 228.729 678.783 230.208 681.494 231.882L679.251 244.905C682.529 247.434 685.424 250.349 687.896 253.555L700.918 251.312C704.325 256.825 706.825 262.86 708.314 269.167L697.52 276.789C698.039 280.804 698.054 284.912 697.524 289.019L708.318 296.641C707.585 299.742 706.594 302.825 705.336 305.864C704.077 308.903 702.597 311.783 700.923 314.494L687.9 312.251C685.371 315.53 682.457 318.424 679.25 320.896L681.493 333.918C675.981 337.326 669.945 339.825 663.638 341.314L656.016 330.52C652.001 331.039 647.893 331.054 643.787 330.524L636.164 341.318C633.063 340.585 629.981 339.594 626.942 338.336C623.903 337.077 621.022 335.597 618.311 333.923L620.554 320.9C617.276 318.371 614.381 315.456 611.91 312.25L598.887 314.493C595.48 308.98 592.98 302.945 591.492 296.638L602.286 289.016C601.766 285.001 601.752 280.893 602.282 276.787L591.488 269.165C592.221 266.064 593.211 262.981 594.47 259.942C595.729 256.903 597.208 254.023 598.883 251.311L611.905 253.554C614.434 250.276 617.349 247.382 620.555 244.91L618.312 231.888C623.825 228.48 629.86 225.98 636.167 224.492ZM640.719 305.076C652.964 310.148 667.004 304.333 672.076 292.087C677.148 279.841 671.333 265.802 659.087 260.73C646.841 255.657 632.802 261.473 627.73 273.718C622.657 285.964 628.473 300.004 640.719 305.076Z" fill="#2076B8"/>
<g id="gear4">
<mask id="path-60-inside-1_190_370" fill="white">
<path fill-rule="evenodd" clip-rule="evenodd" d="M693.105 132.322L698.187 139.518C700.864 139.171 703.602 139.162 706.339 139.515L711.421 132.319C713.489 132.808 715.544 133.468 717.57 134.307C719.596 135.146 721.516 136.133 723.323 137.249L721.828 145.931C724.014 147.617 725.943 149.56 727.591 151.697L736.273 150.202C738.544 153.877 740.211 157.9 741.203 162.105L734.007 167.187C734.354 169.863 734.363 172.602 734.01 175.34L741.206 180.421C740.717 182.489 740.057 184.544 739.218 186.57C738.379 188.596 737.392 190.516 736.276 192.323L727.594 190.828C725.908 193.014 723.965 194.944 721.828 196.591L723.323 205.273C719.648 207.544 715.624 209.211 711.419 210.203L706.338 203.007C703.661 203.354 700.923 203.363 698.185 203.01L693.103 210.206C691.036 209.717 688.981 209.057 686.955 208.218C684.929 207.379 683.009 206.392 681.201 205.276L682.697 196.594C680.511 194.908 678.581 192.965 676.934 190.828L668.252 192.323C665.981 188.648 664.314 184.624 663.322 180.419L670.518 175.338C670.172 172.661 670.162 169.923 670.515 167.185L663.319 162.104C663.808 160.036 664.468 157.981 665.307 155.955C666.147 153.929 667.133 152.009 668.249 150.202L676.931 151.697C678.617 149.511 680.56 147.582 682.697 145.934L681.202 137.252C684.877 134.981 688.901 133.314 693.105 132.322ZM696.14 186.045C704.304 189.426 713.663 185.549 717.045 177.385C720.426 169.222 716.549 159.862 708.386 156.48C700.222 153.099 690.862 156.976 687.48 165.14C684.099 173.303 687.976 182.663 696.14 186.045Z"/>
</mask>
<path d="M698.187 139.518L696.553 140.671L697.248 141.656L698.444 141.501L698.187 139.518ZM693.105 132.322L694.739 131.168L693.96 130.065L692.646 130.375L693.105 132.322ZM706.339 139.515L706.083 141.499L707.278 141.653L707.973 140.669L706.339 139.515ZM711.421 132.319L711.881 130.373L710.567 130.062L709.788 131.165L711.421 132.319ZM723.323 137.249L725.294 137.588L725.524 136.257L724.374 135.547L723.323 137.249ZM721.828 145.931L719.857 145.591L719.653 146.778L720.607 147.514L721.828 145.931ZM727.591 151.697L726.007 152.918L726.743 153.873L727.931 153.668L727.591 151.697ZM736.273 150.202L737.974 149.15L737.264 148.002L735.933 148.231L736.273 150.202ZM741.203 162.105L742.357 163.739L743.46 162.96L743.15 161.646L741.203 162.105ZM734.007 167.187L732.854 165.553L731.869 166.248L732.024 167.443L734.007 167.187ZM734.01 175.34L732.026 175.084L731.872 176.278L732.856 176.973L734.01 175.34ZM741.206 180.421L743.152 180.882L743.463 179.567L742.36 178.788L741.206 180.421ZM736.276 192.323L735.937 194.294L737.268 194.524L737.978 193.374L736.276 192.323ZM727.594 190.828L727.934 188.857L726.747 188.653L726.011 189.607L727.594 190.828ZM721.828 196.591L720.607 195.008L719.652 195.743L719.857 196.931L721.828 196.591ZM723.323 205.273L724.374 206.974L725.523 206.264L725.294 204.933L723.323 205.273ZM711.419 210.203L709.786 211.357L710.565 212.46L711.879 212.15L711.419 210.203ZM706.338 203.007L707.972 201.854L707.277 200.869L706.081 201.024L706.338 203.007ZM698.185 203.01L698.441 201.026L697.246 200.872L696.551 201.856L698.185 203.01ZM693.103 210.206L692.643 212.152L693.958 212.463L694.737 211.36L693.103 210.206ZM681.201 205.276L679.23 204.936L679.001 206.268L680.151 206.978L681.201 205.276ZM682.697 196.594L684.668 196.933L684.872 195.746L683.918 195.01L682.697 196.594ZM676.934 190.828L678.518 189.606L677.782 188.652L676.594 188.857L676.934 190.828ZM668.252 192.323L666.551 193.374L667.261 194.523L668.592 194.294L668.252 192.323ZM663.322 180.419L662.168 178.786L661.065 179.564L661.375 180.879L663.322 180.419ZM670.518 175.338L671.671 176.971L672.656 176.276L672.501 175.081L670.518 175.338ZM670.515 167.185L672.499 167.441L672.653 166.247L671.669 165.552L670.515 167.185ZM663.319 162.104L661.373 161.643L661.062 162.958L662.165 163.737L663.319 162.104ZM668.249 150.202L668.589 148.231L667.257 148.001L666.547 149.151L668.249 150.202ZM676.931 151.697L676.592 153.668L677.779 153.872L678.515 152.918L676.931 151.697ZM682.697 145.934L683.918 147.518L684.873 146.782L684.668 145.594L682.697 145.934ZM681.202 137.252L680.151 135.551L679.002 136.261L679.231 137.592L681.202 137.252ZM699.821 138.364L694.739 131.168L691.472 133.475L696.553 140.671L699.821 138.364ZM706.595 137.532C703.685 137.156 700.775 137.166 697.93 137.534L698.444 141.501C700.952 141.177 703.519 141.168 706.083 141.499L706.595 137.532ZM709.788 131.165L704.706 138.362L707.973 140.669L713.055 133.473L709.788 131.165ZM718.335 132.46C716.21 131.579 714.053 130.886 711.881 130.373L710.961 134.265C712.925 134.73 714.878 135.357 716.805 136.155L718.335 132.46ZM724.374 135.547C722.476 134.375 720.46 133.34 718.335 132.46L716.805 136.155C718.731 136.953 720.556 137.891 722.272 138.951L724.374 135.547ZM723.799 146.27L725.294 137.588L721.352 136.909L719.857 145.591L723.799 146.27ZM729.175 150.476C727.424 148.205 725.373 146.139 723.05 144.347L720.607 147.514C722.654 149.094 724.463 150.915 726.007 152.918L729.175 150.476ZM735.933 148.231L727.252 149.726L727.931 153.668L736.612 152.173L735.933 148.231ZM743.15 161.646C742.108 157.232 740.359 153.008 737.974 149.15L734.572 151.254C736.73 154.746 738.314 158.569 739.257 162.565L743.15 161.646ZM735.161 168.82L742.357 163.739L740.05 160.472L732.854 165.553L735.161 168.82ZM735.993 175.596C736.369 172.685 736.359 169.774 735.991 166.93L732.024 167.443C732.348 169.952 732.357 172.519 732.026 175.084L735.993 175.596ZM742.36 178.788L735.164 173.706L732.856 176.973L740.052 182.055L742.36 178.788ZM741.066 187.335C741.946 185.21 742.639 183.053 743.152 180.882L739.26 179.961C738.795 181.925 738.168 183.878 737.37 185.804L741.066 187.335ZM737.978 193.374C739.15 191.476 740.185 189.46 741.066 187.335L737.37 185.804C736.572 187.731 735.635 189.556 734.575 191.273L737.978 193.374ZM727.255 192.799L735.937 194.294L736.616 190.352L727.934 188.857L727.255 192.799ZM723.049 198.175C725.32 196.424 727.386 194.373 729.178 192.05L726.011 189.607C724.431 191.654 722.61 193.463 720.607 195.008L723.049 198.175ZM725.294 204.933L723.799 196.252L719.857 196.931L721.352 205.612L725.294 204.933ZM711.879 212.15C716.293 211.108 720.516 209.359 724.374 206.974L722.271 203.572C718.779 205.73 714.956 207.314 710.96 208.257L711.879 212.15ZM704.704 204.161L709.786 211.357L713.053 209.05L707.972 201.854L704.704 204.161ZM697.929 204.993C700.839 205.369 703.75 205.359 706.594 204.991L706.081 201.024C703.572 201.348 701.006 201.357 698.441 201.026L697.929 204.993ZM694.737 211.36L699.819 204.163L696.551 201.856L691.47 209.052L694.737 211.36ZM686.19 210.065C688.315 210.946 690.472 211.639 692.643 212.152L693.564 208.26C691.6 207.795 689.647 207.168 687.721 206.37L686.19 210.065ZM680.151 206.978C682.049 208.15 684.065 209.185 686.19 210.065L687.721 206.37C685.794 205.572 683.969 204.634 682.252 203.574L680.151 206.978ZM680.726 196.255L679.23 204.936L683.172 205.615L684.668 196.933L680.726 196.255ZM675.35 192.049C677.101 194.32 679.152 196.385 681.475 198.178L683.918 195.01C681.871 193.431 680.062 191.61 678.518 189.606L675.35 192.049ZM668.592 194.294L677.273 192.799L676.594 188.857L667.913 190.352L668.592 194.294ZM661.375 180.879C662.417 185.293 664.166 189.516 666.551 193.374L669.953 191.271C667.795 187.779 666.211 183.955 665.268 179.96L661.375 180.879ZM669.364 173.704L662.168 178.786L664.475 182.053L671.671 176.971L669.364 173.704ZM668.532 166.929C668.156 169.839 668.166 172.75 668.534 175.594L672.501 175.081C672.177 172.572 672.168 170.006 672.499 167.441L668.532 166.929ZM662.165 163.737L669.362 168.819L671.669 165.552L664.473 160.47L662.165 163.737ZM663.46 155.19C662.579 157.315 661.886 159.472 661.373 161.643L665.265 162.564C665.73 160.6 666.357 158.647 667.155 156.721L663.46 155.19ZM666.547 149.151C665.375 151.049 664.34 153.065 663.46 155.19L667.155 156.721C667.953 154.794 668.891 152.969 669.951 151.252L666.547 149.151ZM677.27 149.726L668.589 148.231L667.91 152.173L676.592 153.668L677.27 149.726ZM681.476 144.35C679.205 146.101 677.14 148.152 675.347 150.475L678.515 152.918C680.094 150.871 681.915 149.062 683.918 147.518L681.476 144.35ZM679.231 137.592L680.726 146.273L684.668 145.594L683.173 136.913L679.231 137.592ZM692.646 130.375C688.232 131.417 684.008 133.167 680.151 135.551L682.254 138.954C685.746 136.795 689.569 135.211 693.565 134.268L692.646 130.375ZM715.197 176.62C712.238 183.763 704.048 187.156 696.905 184.197L695.374 187.892C704.559 191.697 715.088 187.335 718.892 178.151L715.197 176.62ZM707.62 158.328C714.764 161.287 718.156 169.477 715.197 176.62L718.892 178.151C722.697 168.966 718.335 158.437 709.151 154.633L707.62 158.328ZM689.328 165.905C692.287 158.761 700.477 155.369 707.62 158.328L709.151 154.633C699.966 150.828 689.437 155.19 685.633 164.374L689.328 165.905ZM696.905 184.197C689.762 181.238 686.369 173.048 689.328 165.905L685.633 164.374C681.828 173.559 686.19 184.088 695.374 187.892L696.905 184.197Z" fill="#2076B8" mask="url(#path-60-inside-1_190_370)"/>
</g>
<path id="gear3" fill-rule="evenodd" clip-rule="evenodd" d="M293.882 16.6522L300.234 25.6471C303.579 25.2144 307.002 25.2025 310.424 25.644L316.776 16.6486C319.36 17.2597 321.93 18.0852 324.462 19.1342C326.994 20.183 329.395 21.4159 331.654 22.8109L329.785 33.6632C332.517 35.7706 334.929 38.1996 336.989 40.8714L347.841 39.0025C350.68 43.5962 352.763 48.6255 354.004 53.8815L345.009 60.2334C345.442 63.5793 345.454 67.0026 345.012 70.4247L354.007 76.7769C353.396 79.3609 352.571 81.93 351.522 84.4623C350.473 86.9946 349.24 89.3949 347.845 91.6542L336.993 89.7852C334.885 92.5173 332.456 94.9295 329.784 96.9894L331.653 107.841C327.059 110.68 322.03 112.764 316.774 114.004L310.422 105.009C307.076 105.442 303.653 105.454 300.231 105.012L293.879 114.007C291.295 113.396 288.726 112.571 286.194 111.522C283.661 110.473 281.261 109.24 279.002 107.845L280.871 96.9924C278.139 94.885 275.727 92.4562 273.667 89.7845L262.815 91.6533C259.976 87.0595 257.893 82.03 256.652 76.774L265.647 70.422C265.214 67.0765 265.202 63.6535 265.644 60.2319L256.649 53.8796C257.26 51.2955 258.085 48.7264 259.134 46.194C260.183 43.6616 261.416 41.2612 262.811 39.0019L273.664 40.8709C275.771 38.1392 278.2 35.7272 280.871 33.6674L279.002 22.8155C283.596 19.9761 288.626 17.8928 293.882 16.6522ZM297.674 83.8057C307.879 88.0327 319.579 83.1867 323.806 72.9818C328.033 62.7769 323.187 51.0776 312.982 46.8505C302.777 42.6235 291.078 47.4696 286.851 57.6745C282.624 67.8794 287.47 79.5787 297.674 83.8057Z" fill="#A8D5F8"/>
<g id="gear2">
<mask id="path-63-inside-2_190_370" fill="white">
<path fill-rule="evenodd" clip-rule="evenodd" d="M135.882 454.652L142.234 463.647C145.579 463.214 149.002 463.202 152.424 463.644L158.776 454.649C161.36 455.26 163.93 456.085 166.462 457.134C168.994 458.183 171.395 459.416 173.654 460.811L171.785 471.663C174.517 473.771 176.929 476.2 178.989 478.871L189.841 477.002C192.68 481.596 194.763 486.626 196.004 491.881L187.009 498.233C187.442 501.579 187.454 505.003 187.012 508.425L196.007 514.777C195.396 517.361 194.571 519.93 193.522 522.462C192.473 524.995 191.24 527.395 189.845 529.654L178.993 527.785C176.885 530.517 174.456 532.93 171.784 534.989L173.653 545.841C169.059 548.68 164.03 550.764 158.774 552.004L152.422 543.009C149.076 543.442 145.653 543.454 142.231 543.012L135.879 552.007C133.295 551.396 130.726 550.571 128.194 549.522C125.661 548.473 123.261 547.24 121.002 545.845L122.871 534.992C120.139 532.885 117.727 530.456 115.667 527.784L104.815 529.653C101.976 525.06 99.8925 520.03 98.652 514.774L107.647 508.422C107.214 505.076 107.202 501.654 107.644 498.232L98.6487 491.88C99.2597 489.296 100.085 486.726 101.134 484.194C102.183 481.662 103.416 479.261 104.811 477.002L115.664 478.871C117.771 476.139 120.2 473.727 122.871 471.667L121.002 460.816C125.596 457.976 130.626 455.893 135.882 454.652ZM139.674 521.806C149.879 526.033 161.579 521.187 165.806 510.982C170.033 500.777 165.187 489.078 154.982 484.851C144.777 480.624 133.078 485.47 128.851 495.674C124.624 505.879 129.47 517.579 139.674 521.806Z"/>
</mask>
<path d="M142.234 463.647L140.6 464.801L141.295 465.785L142.49 465.631L142.234 463.647ZM135.882 454.652L137.515 453.499L136.736 452.395L135.422 452.706L135.882 454.652ZM152.424 463.644L152.168 465.628L153.363 465.782L154.058 464.798L152.424 463.644ZM158.776 454.649L159.236 452.702L157.922 452.391L157.143 453.495L158.776 454.649ZM173.654 460.811L175.625 461.15L175.854 459.819L174.705 459.109L173.654 460.811ZM171.785 471.663L169.814 471.324L169.609 472.511L170.563 473.247L171.785 471.663ZM178.989 478.871L177.405 480.093L178.141 481.047L179.328 480.842L178.989 478.871ZM189.841 477.002L191.542 475.951L190.832 474.802L189.501 475.032L189.841 477.002ZM196.004 491.881L197.158 493.515L198.261 492.736L197.951 491.422L196.004 491.881ZM187.009 498.233L185.855 496.6L184.871 497.295L185.026 498.49L187.009 498.233ZM187.012 508.425L185.029 508.169L184.874 509.363L185.859 510.058L187.012 508.425ZM196.007 514.777L197.954 515.237L198.265 513.922L197.161 513.143L196.007 514.777ZM189.845 529.654L189.506 531.625L190.837 531.854L191.547 530.705L189.845 529.654ZM178.993 527.785L179.332 525.814L178.145 525.61L177.409 526.564L178.993 527.785ZM171.784 534.989L170.563 533.406L169.609 534.141L169.813 535.329L171.784 534.989ZM173.653 545.841L174.705 547.543L175.853 546.833L175.624 545.502L173.653 545.841ZM158.774 552.004L157.14 553.158L157.919 554.261L159.234 553.951L158.774 552.004ZM152.422 543.009L154.056 541.856L153.361 540.871L152.166 541.026L152.422 543.009ZM142.231 543.012L142.487 541.029L141.292 540.874L140.597 541.858L142.231 543.012ZM135.879 552.007L135.419 553.954L136.733 554.265L137.513 553.161L135.879 552.007ZM121.002 545.845L119.031 545.505L118.801 546.837L119.951 547.547L121.002 545.845ZM122.871 534.992L124.841 535.332L125.046 534.145L124.092 533.409L122.871 534.992ZM115.667 527.784L117.251 526.563L116.515 525.609L115.327 525.813L115.667 527.784ZM104.815 529.653L103.114 530.705L103.824 531.853L105.155 531.624L104.815 529.653ZM98.652 514.774L97.4983 513.14L96.3953 513.919L96.7055 515.233L98.652 514.774ZM107.647 508.422L108.801 510.056L109.785 509.361L109.63 508.166L107.647 508.422ZM107.644 498.232L109.628 498.488L109.782 497.293L108.798 496.598L107.644 498.232ZM98.6487 491.88L96.7024 491.419L96.3915 492.734L97.495 493.513L98.6487 491.88ZM104.811 477.002L105.151 475.031L103.819 474.802L103.11 475.951L104.811 477.002ZM115.664 478.871L115.324 480.842L116.511 481.046L117.247 480.092L115.664 478.871ZM122.871 471.667L124.092 473.251L125.047 472.516L124.842 471.328L122.871 471.667ZM121.002 460.816L119.951 459.114L118.802 459.824L119.031 461.155L121.002 460.816ZM143.867 462.493L137.515 453.499L134.248 455.806L140.6 464.801L143.867 462.493ZM152.68 461.66C149.085 461.197 145.49 461.209 141.977 461.664L142.49 465.631C145.668 465.22 148.919 465.208 152.168 465.628L152.68 461.66ZM157.143 453.495L150.79 462.49L154.058 464.798L160.41 455.802L157.143 453.495ZM167.228 455.286C164.596 454.196 161.924 453.338 159.236 452.702L158.316 456.595C160.796 457.181 163.264 457.974 165.697 458.982L167.228 455.286ZM174.705 459.109C172.355 457.658 169.859 456.376 167.228 455.286L165.697 458.982C168.13 459.99 170.435 461.174 172.603 462.513L174.705 459.109ZM173.756 472.003L175.625 461.15L171.683 460.471L169.814 471.324L173.756 472.003ZM180.573 477.65C178.41 474.845 175.876 472.293 173.006 470.08L170.563 473.247C173.157 475.248 175.448 477.555 177.405 480.093L180.573 477.65ZM189.501 475.032L178.65 476.9L179.328 480.842L190.18 478.973L189.501 475.032ZM197.951 491.422C196.661 485.957 194.494 480.728 191.542 475.951L188.14 478.054C190.866 482.465 192.866 487.294 194.058 492.341L197.951 491.422ZM188.163 499.867L197.158 493.515L194.85 490.248L185.855 496.6L188.163 499.867ZM188.996 508.681C189.46 505.086 189.447 501.49 188.993 497.977L185.026 498.49C185.437 501.668 185.448 504.919 185.029 508.169L188.996 508.681ZM197.161 513.143L188.166 506.791L185.859 510.058L194.854 516.411L197.161 513.143ZM195.37 523.228C196.46 520.596 197.318 517.925 197.954 515.237L194.061 514.317C193.475 516.797 192.682 519.264 191.674 521.697L195.37 523.228ZM191.547 530.705C192.998 528.355 194.28 525.859 195.37 523.228L191.674 521.697C190.667 524.13 189.482 526.435 188.143 528.603L191.547 530.705ZM178.653 529.756L189.506 531.625L190.185 527.683L179.332 525.814L178.653 529.756ZM173.005 536.573C175.811 534.41 178.363 531.877 180.576 529.007L177.409 526.564C175.408 529.158 173.101 531.449 170.563 533.406L173.005 536.573ZM175.624 545.502L173.755 534.65L169.813 535.329L171.682 546.181L175.624 545.502ZM159.234 553.951C164.699 552.661 169.928 550.495 174.705 547.543L172.602 544.14C168.191 546.866 163.361 548.867 158.315 550.058L159.234 553.951ZM150.788 544.163L157.14 553.158L160.408 550.851L154.056 541.856L150.788 544.163ZM141.975 544.996C145.57 545.46 149.165 545.447 152.679 544.993L152.166 541.026C148.987 541.437 145.736 541.448 142.487 541.029L141.975 544.996ZM137.513 553.161L143.865 544.166L140.597 541.858L134.245 550.854L137.513 553.161ZM127.429 551.37C130.06 552.46 132.731 553.318 135.419 553.954L136.339 550.061C133.859 549.475 131.392 548.682 128.959 547.674L127.429 551.37ZM119.951 547.547C122.301 548.998 124.797 550.28 127.429 551.37L128.959 547.674C126.526 546.666 124.221 545.482 122.052 544.143L119.951 547.547ZM120.9 534.653L119.031 545.505L122.973 546.184L124.841 535.332L120.9 534.653ZM114.083 529.006C116.246 531.811 118.779 534.362 121.649 536.576L124.092 533.409C121.498 531.408 119.207 529.101 117.251 526.563L114.083 529.006ZM105.155 531.624L116.006 529.755L115.327 525.813L104.476 527.682L105.155 531.624ZM96.7055 515.233C97.9954 520.699 100.161 525.928 103.114 530.705L106.516 528.602C103.79 524.191 101.79 519.361 100.599 514.315L96.7055 515.233ZM106.493 506.788L97.4983 513.14L99.8057 516.408L108.801 510.056L106.493 506.788ZM105.66 497.976C105.197 501.57 105.209 505.165 105.663 508.678L109.63 508.166C109.219 504.988 109.208 501.737 109.628 498.488L105.66 497.976ZM97.495 493.513L106.49 499.866L108.798 496.598L99.8024 490.246L97.495 493.513ZM99.2864 483.429C98.1963 486.06 97.338 488.732 96.7024 491.419L100.595 492.34C101.182 489.86 101.974 487.392 102.982 484.959L99.2864 483.429ZM103.11 475.951C101.658 478.301 100.376 480.797 99.2864 483.429L102.982 484.959C103.99 482.526 105.174 480.221 106.513 478.053L103.11 475.951ZM116.003 476.9L105.151 475.031L104.472 478.973L115.324 480.842L116.003 476.9ZM121.65 470.084C118.845 472.246 116.294 474.78 114.08 477.649L117.247 480.092C119.248 477.499 121.555 475.208 124.092 473.251L121.65 470.084ZM119.031 461.155L120.9 472.007L124.842 471.328L122.973 460.476L119.031 461.155ZM135.422 452.706C129.957 453.996 124.727 456.162 119.951 459.114L122.054 462.517C126.465 459.79 131.294 457.79 136.341 456.599L135.422 452.706ZM163.958 510.216C160.154 519.401 149.624 523.762 140.44 519.958L138.909 523.653C150.134 528.303 163.004 522.973 167.653 511.747L163.958 510.216ZM154.216 486.698C163.401 490.503 167.762 501.032 163.958 510.216L167.653 511.747C172.303 500.522 166.973 487.652 155.747 483.003L154.216 486.698ZM130.698 496.44C134.503 487.255 145.032 482.894 154.216 486.698L155.747 483.003C144.522 478.353 131.652 483.684 127.003 494.909L130.698 496.44ZM140.44 519.958C131.255 516.154 126.894 505.624 130.698 496.44L127.003 494.909C122.353 506.134 127.684 519.004 138.909 523.653L140.44 519.958Z" fill="#2076B8" mask="url(#path-63-inside-2_190_370)"/>
</g>
<path id="gear1" fill-rule="evenodd" clip-rule="evenodd" d="M785.882 165.652L792.234 174.647C795.579 174.214 799.002 174.202 802.424 174.644L808.776 165.649C811.36 166.26 813.93 167.085 816.462 168.134C818.994 169.183 821.395 170.416 823.654 171.811L821.785 182.663C824.517 184.771 826.929 187.2 828.989 189.871L839.841 188.002C842.68 192.596 844.763 197.626 846.004 202.881L837.009 209.233C837.442 212.579 837.454 216.003 837.012 219.425L846.007 225.777C845.396 228.361 844.571 230.93 843.522 233.462C842.473 235.995 841.24 238.395 839.845 240.654L828.993 238.785C826.885 241.517 824.456 243.93 821.784 245.989L823.653 256.841C819.059 259.68 814.03 261.764 808.774 263.004L802.422 254.009C799.076 254.442 795.653 254.454 792.231 254.012L785.879 263.007C783.295 262.396 780.726 261.571 778.194 260.522C775.661 259.473 773.261 258.24 771.002 256.845L772.871 245.992C770.139 243.885 767.727 241.456 765.667 238.784L754.815 240.653C751.976 236.06 749.893 231.03 748.652 225.774L757.647 219.422C757.214 216.076 757.202 212.654 757.644 209.232L748.649 202.88C749.26 200.296 750.085 197.726 751.134 195.194C752.183 192.662 753.416 190.261 754.811 188.002L765.664 189.871C767.771 187.139 770.2 184.727 772.871 182.667L771.002 171.816C775.596 168.976 780.626 166.893 785.882 165.652ZM789.674 232.806C799.879 237.033 811.579 232.187 815.806 221.982C820.033 211.777 815.187 200.078 804.982 195.851C794.777 191.624 783.078 196.47 778.851 206.674C774.624 216.879 779.47 228.579 789.674 232.806Z" fill="#A8D5F8"/>
</g>
</g>
</svg>
