<svg width="131" height="131" viewBox="0 0 131 131" fill="none" xmlns="http://www.w3.org/2000/svg">
<path fill-rule="evenodd" clip-rule="evenodd" d="M2.43433 2.43414H129.387V129.387H2.43433V2.43414V2.43414Z" fill="#F7DF1E"/>
<path fill-rule="evenodd" clip-rule="evenodd" d="M35.8149 108.525L45.5302 102.646C47.4045 105.969 49.1095 108.781 53.1992 108.781C57.1194 108.781 59.591 107.247 59.591 101.282V60.7179H71.5214V101.451C71.5214 113.808 64.2782 119.432 53.7107 119.432C44.1668 119.432 38.6268 114.489 35.8147 108.524" fill="black"/>
<path fill-rule="evenodd" clip-rule="evenodd" d="M78.0017 107.247L87.7158 101.623C90.273 105.799 93.5966 108.866 99.4763 108.866C104.42 108.866 107.572 106.395 107.572 102.986C107.572 98.8956 104.334 97.4467 98.8797 95.0614L95.8979 93.7822C87.2902 90.1185 81.5804 85.5167 81.5804 75.8016C81.5804 66.8536 88.3978 60.0358 99.0505 60.0358C106.635 60.0358 112.089 62.6778 116.009 69.5807L106.72 75.5457C104.674 71.8815 102.459 70.4331 99.0507 70.4331C95.5567 70.4331 93.3409 72.6487 93.3409 75.5457C93.3409 79.1249 95.5567 80.574 100.669 82.7898L103.652 84.068C113.793 88.4145 119.503 92.8453 119.503 102.816C119.503 113.554 111.066 119.433 99.7323 119.433C88.6539 119.433 81.4953 114.15 78.0019 107.247" fill="black"/>
</svg>
