<svg width="138" height="51" viewBox="0 0 138 51" fill="none" xmlns="http://www.w3.org/2000/svg">
<path d="M20.0046 0.606059C21.5598 -0.138088 23.3611 0.991797 23.3611 2.71144V4.62121C23.3611 4.75936 23.2876 4.88712 23.1679 4.95682L7.73341 13.9496C5.95802 14.984 5.96023 17.5425 7.73736 18.5739L23.1291 27.5068C23.2727 27.59 23.3611 27.7434 23.3611 27.9091V29.3131C23.3611 31.3744 21.0803 32.6258 19.3333 31.5227L1.34427 21.1865C0.512527 20.7086 0 19.8244 0 18.8674V13.7867C0 12.8351 0.506839 11.955 1.33123 11.4751L20.0046 0.606059Z" fill="white"/>
<path d="M14.5 16.399L23.5625 11.0672V21.7307L14.5 16.399Z" fill="white"/>
<path d="M20.0046 0.606059C21.5598 -0.138088 23.3611 0.991797 23.3611 2.71144V4.62121C23.3611 4.75936 23.2876 4.88712 23.1679 4.95682L7.73341 13.9496C5.95802 14.984 5.96023 17.5425 7.73736 18.5739L23.1291 27.5068C23.2727 27.59 23.3611 27.7434 23.3611 27.9091V29.3131C23.3611 31.3744 21.0803 32.6258 19.3333 31.5227L1.34427 21.1865C0.512527 20.7086 0 19.8244 0 18.8674V13.7867C0 12.8351 0.506839 11.955 1.33123 11.4751L20.0046 0.606059Z" fill="white"/>
<path d="M14.5 16.399L23.5625 11.0672V21.7307L14.5 16.399Z" fill="white"/>
<path d="M29.9398 50.3939C28.3846 51.1381 26.5833 50.0082 26.5833 48.2887V46.3788C26.5833 46.2407 26.6569 46.113 26.7765 46.0431L42.2111 37.0502C43.9863 36.0159 43.9841 33.4575 42.2071 32.4261L26.8154 23.4932C26.6717 23.4099 26.5833 23.2566 26.5833 23.0909V21.687C26.5833 19.6256 28.8641 18.3743 30.6111 19.4773L48.6002 29.8133C49.4318 30.2914 49.9444 31.1755 49.9444 32.1325V37.2133C49.9444 38.1649 49.4375 39.045 48.6131 39.5249L29.9398 50.3939Z" fill="white"/>
<path d="M35.4444 34.601L26.3819 39.9329V29.2692L35.4444 34.601Z" fill="white"/>
<path d="M29.9398 50.3939C28.3846 51.1381 26.5833 50.0082 26.5833 48.2887V46.3788C26.5833 46.2407 26.6569 46.113 26.7765 46.0431L42.2111 37.0502C43.9863 36.0159 43.9841 33.4575 42.2071 32.4261L26.8154 23.4932C26.6717 23.4099 26.5833 23.2566 26.5833 23.0909V21.687C26.5833 19.6256 28.8641 18.3743 30.6111 19.4773L48.6002 29.8133C49.4318 30.2914 49.9444 31.1755 49.9444 32.1325V37.2133C49.9444 38.1649 49.4375 39.045 48.6131 39.5249L29.9398 50.3939Z" fill="white"/>
<path d="M35.4444 34.601L26.3819 39.9329V29.2692L35.4444 34.601Z" fill="white"/>
<path d="M54.2257 44.3123V36.5069H58.6724C58.9044 36.5069 59.1138 36.5647 59.3007 36.6803C59.494 36.796 59.6455 36.9469 59.755 37.1332C59.871 37.3195 59.929 37.5283 59.929 37.7596V40.8432C59.929 41.0745 59.871 41.2833 59.755 41.4696C59.6455 41.6559 59.494 41.8069 59.3007 41.9225C59.1138 42.0381 58.9044 42.096 58.6724 42.096H55.2697V44.3123H54.2257ZM55.5114 41.0552H58.6434C58.7078 41.0552 58.7626 41.0327 58.8077 40.9878C58.8593 40.9364 58.885 40.8786 58.885 40.8143V37.7885C58.885 37.7243 58.8593 37.6697 58.8077 37.6247C58.7626 37.5733 58.7078 37.5476 58.6434 37.5476H55.5114C55.4469 37.5476 55.3889 37.5733 55.3374 37.6247C55.2923 37.6697 55.2697 37.7243 55.2697 37.7885V40.8143C55.2697 40.8786 55.2923 40.9364 55.3374 40.9878C55.3889 41.0327 55.4469 41.0552 55.5114 41.0552ZM66.7059 42.096C66.4739 42.096 66.2645 42.0381 66.0776 41.9225C65.8907 41.8069 65.7392 41.6559 65.6232 41.4696C65.5072 41.2833 65.4492 41.0745 65.4492 40.8432V37.7596C65.4492 37.5283 65.5072 37.3195 65.6232 37.1332C65.7392 36.9469 65.8907 36.796 66.0776 36.6803C66.2645 36.5647 66.4739 36.5069 66.7059 36.5069H69.8959C70.1279 36.5069 70.3373 36.5647 70.5242 36.6803C70.7176 36.7895 70.869 36.9405 70.9786 37.1332C71.0946 37.326 71.1526 37.5347 71.1526 37.7596V40.8432C71.1526 41.0745 71.0946 41.2833 70.9786 41.4696C70.869 41.6559 70.7176 41.8069 70.5242 41.9225C70.3373 42.0381 70.1279 42.096 69.8959 42.096H66.7059ZM66.7349 41.0552H69.8669C69.9313 41.0552 69.9861 41.0327 70.0312 40.9878C70.0764 40.9364 70.0989 40.8786 70.0989 40.8143V37.7885C70.0989 37.7243 70.0764 37.6697 70.0312 37.6247C69.9861 37.5733 69.9313 37.5476 69.8669 37.5476H66.7349C66.6705 37.5476 66.6125 37.5733 66.5609 37.6247C66.5158 37.6697 66.4932 37.7243 66.4932 37.7885V40.8143C66.4932 40.8786 66.5158 40.9364 66.5609 40.9878C66.6125 41.0327 66.6705 41.0552 66.7349 41.0552ZM76.8344 42.096V37.7596C76.8344 37.5283 76.8924 37.3195 77.0084 37.1332C77.1244 36.9469 77.2759 36.796 77.4628 36.6803C77.6561 36.5647 77.8655 36.5069 78.0911 36.5069H81.2231V37.5476H78.1201C78.0556 37.5476 77.9977 37.5733 77.9461 37.6247C77.901 37.6697 77.8784 37.7243 77.8784 37.7885V42.096H76.8344ZM87.9277 42.096C87.6957 42.096 87.4831 42.0381 87.2897 41.9225C87.1028 41.8069 86.9514 41.6559 86.8354 41.4696C86.7258 41.2833 86.6711 41.0745 86.6711 40.8432V34.7434H87.7151V36.5069H90.0157V37.5476H87.7151V40.8143C87.7151 40.8786 87.7376 40.9364 87.7827 40.9878C87.8343 41.0327 87.8923 41.0552 87.9567 41.0552H90.0157V42.096H87.9277ZM95.6108 42.096V35.9287C95.6108 35.6974 95.6656 35.4886 95.7752 35.3023C95.8912 35.1096 96.0426 34.9586 96.2295 34.8494C96.4229 34.7338 96.6355 34.676 96.8675 34.676H98.9555V35.7167H96.8965C96.8321 35.7167 96.7741 35.7424 96.7225 35.7938C96.6774 35.8387 96.6548 35.8933 96.6548 35.9576V36.5069H98.9555V37.5476H96.6548V42.096H95.6108ZM105.769 42.096C105.537 42.096 105.328 42.0381 105.141 41.9225C104.954 41.8069 104.803 41.6559 104.687 41.4696C104.571 41.2833 104.513 41.0745 104.513 40.8432V37.7596C104.513 37.5283 104.571 37.3195 104.687 37.1332C104.803 36.9469 104.954 36.796 105.141 36.6803C105.328 36.5647 105.537 36.5069 105.769 36.5069H108.959C109.191 36.5069 109.401 36.5647 109.588 36.6803C109.781 36.7895 109.932 36.9405 110.042 37.1332C110.158 37.326 110.216 37.5347 110.216 37.7596V40.8432C110.216 41.0745 110.158 41.2833 110.042 41.4696C109.932 41.6559 109.781 41.8069 109.588 41.9225C109.401 42.0381 109.191 42.096 108.959 42.096H105.769ZM105.798 41.0552H108.93C108.995 41.0552 109.049 41.0327 109.095 40.9878C109.14 40.9364 109.162 40.8786 109.162 40.8143V37.7885C109.162 37.7243 109.14 37.6697 109.095 37.6247C109.049 37.5733 108.995 37.5476 108.93 37.5476H105.798C105.734 37.5476 105.676 37.5733 105.624 37.6247C105.579 37.6697 105.557 37.7243 105.557 37.7885V40.8143C105.557 40.8786 105.579 40.9364 105.624 40.9878C105.676 41.0327 105.734 41.0552 105.798 41.0552ZM117.088 42.096C116.856 42.096 116.647 42.0381 116.46 41.9225C116.273 41.8069 116.121 41.6559 116.005 41.4696C115.889 41.2833 115.831 41.0745 115.831 40.8432V34.676H116.875V40.8143C116.875 40.8786 116.898 40.9364 116.943 40.9878C116.995 41.0327 117.053 41.0552 117.117 41.0552H118.132V42.096H117.088ZM123.818 42.096V36.5069H124.862V42.096H123.818ZM123.818 35.7167V34.676H124.862V35.7167H123.818ZM131.984 42.096C131.752 42.096 131.543 42.0381 131.356 41.9225C131.169 41.8069 131.018 41.6559 130.902 41.4696C130.786 41.2833 130.728 41.0745 130.728 40.8432V37.7596C130.728 37.5283 130.786 37.3195 130.902 37.1332C131.018 36.9469 131.169 36.796 131.356 36.6803C131.543 36.5647 131.752 36.5069 131.984 36.5069H135.174C135.406 36.5069 135.616 36.5647 135.803 36.6803C135.996 36.7895 136.147 36.9405 136.257 37.1332C136.373 37.326 136.431 37.5347 136.431 37.7596V40.8432C136.431 41.0745 136.373 41.2833 136.257 41.4696C136.147 41.6559 135.996 41.8069 135.803 41.9225C135.616 42.0381 135.406 42.096 135.174 42.096H131.984ZM132.013 41.0552H135.145C135.21 41.0552 135.265 41.0327 135.31 40.9878C135.355 40.9364 135.377 40.8786 135.377 40.8143V37.7885C135.377 37.7243 135.355 37.6697 135.31 37.6247C135.265 37.5733 135.21 37.5476 135.145 37.5476H132.013C131.949 37.5476 131.891 37.5733 131.839 37.6247C131.794 37.6697 131.772 37.7243 131.772 37.7885V40.8143C131.772 40.8786 131.794 40.9364 131.839 40.9878C131.891 41.0327 131.949 41.0552 132.013 41.0552Z" fill="white"/>
<path d="M54.3052 26.5707C53.7896 26.5707 53.317 26.4494 52.8874 26.2067C52.472 25.9497 52.1356 25.6071 51.8778 25.1788C51.6342 24.7505 51.5126 24.2865 51.5126 23.7869V16.9343C51.5126 16.4204 51.6342 15.9564 51.8778 15.5424C52.1356 15.1284 52.472 14.7929 52.8874 14.536C53.317 14.279 53.7896 14.1505 54.3052 14.1505H61.8667V10.0818H64.1867V26.5707H54.3052ZM54.3911 24.258H61.3511C61.4942 24.258 61.6161 24.208 61.7163 24.1081C61.8165 23.9939 61.8667 23.8654 61.8667 23.7226V16.9986C61.8667 16.8558 61.8165 16.7345 61.7163 16.6345C61.6161 16.5203 61.4942 16.4632 61.3511 16.4632H54.3911C54.248 16.4632 54.1191 16.5203 54.0044 16.6345C53.9043 16.7345 53.8541 16.8558 53.8541 16.9986V23.7226C53.8541 23.8654 53.9043 23.9939 54.0044 24.1081C54.1191 24.208 54.248 24.258 54.3911 24.258ZM69.4386 26.5707C68.9231 26.5707 68.4575 26.4422 68.0423 26.1853C67.6269 25.9283 67.2905 25.5928 67.0327 25.1788C66.7749 24.7648 66.646 24.3008 66.646 23.7869V16.9343C66.646 16.4204 66.7749 15.9564 67.0327 15.5424C67.2905 15.1284 67.6269 14.7929 68.0423 14.536C68.4575 14.279 68.9231 14.1505 69.4386 14.1505H76.5275C77.0431 14.1505 77.5084 14.279 77.9238 14.536C78.3534 14.7787 78.6899 15.1141 78.9334 15.5424C79.1912 15.9707 79.3201 16.4347 79.3201 16.9343V21.517H68.966V23.7226C68.966 23.8654 69.016 23.9939 69.1164 24.1081C69.2308 24.208 69.3597 24.258 69.5031 24.258H79.3201V26.5707H69.4386ZM68.966 19.3541H76.9786V16.9986C76.9786 16.8558 76.9284 16.7345 76.8282 16.6345C76.7278 16.5203 76.6062 16.4632 76.4631 16.4632H69.5031C69.3597 16.4632 69.2308 16.5203 69.1164 16.6345C69.016 16.7345 68.966 16.8558 68.966 16.9986V19.3541ZM87.6801 26.5707L80.8061 14.1505H83.4913L88.8401 23.9582L94.189 14.1505H96.8742L90.0002 26.5707H87.6801ZM93.9536 31.496V29.1618H99.2165C99.3599 29.1618 99.4815 29.1118 99.5817 29.0119C99.6964 28.9121 99.7536 28.7906 99.7536 28.6479V14.1505H102.074V28.7121C102.074 29.2261 101.945 29.6899 101.687 30.104C101.444 30.5323 101.107 30.8677 100.677 31.1105C100.262 31.3675 99.7965 31.496 99.281 31.496H93.9536ZM99.7536 12.3945V10.0818H102.074V12.3945H99.7536ZM107.37 26.5707C106.855 26.5707 106.389 26.4422 105.974 26.1853C105.559 25.9283 105.222 25.5928 104.964 25.1788C104.706 24.7648 104.577 24.3008 104.577 23.7869V16.9343C104.577 16.4204 104.706 15.9564 104.964 15.5424C105.222 15.1284 105.559 14.7929 105.974 14.536C106.389 14.279 106.855 14.1505 107.37 14.1505H114.459C114.975 14.1505 115.44 14.279 115.855 14.536C116.285 14.7787 116.622 15.1141 116.865 15.5424C117.123 15.9707 117.252 16.4347 117.252 16.9343V21.517H106.897V23.7226C106.897 23.8654 106.948 23.9939 107.048 24.1081C107.163 24.208 107.291 24.258 107.435 24.258H117.252V26.5707H107.37ZM106.897 19.3541H114.91V16.9986C114.91 16.8558 114.86 16.7345 114.76 16.6345C114.66 16.5203 114.538 16.4632 114.395 16.4632H107.435C107.291 16.4632 107.163 16.5203 107.048 16.6345C106.948 16.7345 106.897 16.8558 106.897 16.9986V19.3541ZM120.138 26.5707V12.8657C120.138 12.3517 120.26 11.8878 120.504 11.4737C120.761 11.0455 121.098 10.71 121.513 10.4673C121.943 10.2103 122.415 10.0818 122.931 10.0818H127.571V12.3945H122.995C122.852 12.3945 122.723 12.4516 122.609 12.5659C122.509 12.6658 122.458 12.7871 122.458 12.9299V14.1505H127.571V16.4632H122.458V26.5707H120.138ZM129.782 26.5707V12.8657C129.782 12.3517 129.904 11.8878 130.147 11.4737C130.405 11.0455 130.742 10.71 131.157 10.4673C131.587 10.2103 132.059 10.0818 132.575 10.0818H137.215V12.3945H132.639C132.496 12.3945 132.367 12.4516 132.253 12.5659C132.152 12.6658 132.102 12.7871 132.102 12.9299V14.1505H137.215V16.4632H132.102V26.5707H129.782Z" fill="white"/>
</svg>
