<svg width="132" height="132" viewBox="0 0 132 132" fill="none" xmlns="http://www.w3.org/2000/svg">
<g clip-path="url(#clip0_99_589)">
<path d="M107.978 45.5511C106.627 45.0859 105.226 44.6457 103.784 44.2294C104.021 43.2621 104.239 42.3073 104.432 41.3687C107.607 25.9573 105.531 13.5418 98.4427 9.45407C91.6457 5.53448 80.5298 9.62128 69.3033 19.3914C68.2237 20.3309 67.1412 21.3255 66.0591 22.368C65.338 21.6783 64.6182 21.0118 63.9002 20.3742C52.1344 9.9274 40.3411 5.52497 33.2596 9.62452C26.4692 13.5555 24.4582 25.2273 27.3161 39.8328C27.5921 41.2435 27.9147 42.6842 28.2795 44.1489C26.6104 44.6227 24.9991 45.1278 23.4573 45.6652C9.66326 50.4744 0.85376 58.0116 0.85376 65.8297C0.85376 73.9042 10.3108 82.0032 24.6783 86.9139C25.8122 87.3015 26.9887 87.6679 28.2011 88.0158C27.8076 89.6 27.4652 91.1524 27.1779 92.6666C24.4529 107.019 26.581 118.415 33.3533 122.321C40.3486 126.355 52.0885 122.208 63.5203 112.216C64.4238 111.426 65.3306 110.588 66.239 109.71C67.4164 110.844 68.592 111.917 69.7613 112.923C80.8343 122.452 91.7707 126.3 98.5368 122.383C105.525 118.337 107.796 106.095 104.848 91.2007C104.622 90.0631 104.36 88.901 104.066 87.7182C104.891 87.4745 105.7 87.2229 106.489 86.9613C121.426 82.0124 131.144 74.0121 131.144 65.8297C131.144 57.9833 122.05 50.3953 107.978 45.5511ZM104.739 81.678C104.026 81.9139 103.295 82.1419 102.55 82.3629C100.901 77.1427 98.676 71.5918 95.9526 65.8568C98.5514 60.2584 100.691 54.7785 102.294 49.5922C103.626 49.9779 104.92 50.3846 106.167 50.8139C118.223 54.9645 125.578 61.1012 125.578 65.8297C125.578 70.8664 117.635 77.4048 104.739 81.678ZM99.3875 92.2816C100.691 98.8678 100.878 104.822 100.014 109.477C99.2379 113.66 97.6773 116.449 95.7478 117.566C91.6418 119.943 82.861 116.853 73.3913 108.704C72.3057 107.77 71.2122 106.773 70.1152 105.717C73.7864 101.702 77.4556 97.034 81.0366 91.85C87.3351 91.2911 93.2858 90.3774 98.6822 89.1299C98.948 90.202 99.1841 91.2535 99.3875 92.2816ZM45.2726 117.155C41.2609 118.572 38.0658 118.612 36.1344 117.499C32.0247 115.128 30.3162 105.978 32.6467 93.7046C32.9136 92.299 33.2313 90.8551 33.5975 89.3792C38.9348 90.5594 44.8419 91.4087 51.1555 91.9205C54.7606 96.9932 58.5358 101.656 62.3401 105.738C61.5089 106.541 60.681 107.305 59.8577 108.025C54.8026 112.443 49.7369 115.578 45.2726 117.155ZM26.4784 81.6472C20.1254 79.4758 14.8788 76.6536 11.2825 73.574C8.05099 70.8066 6.41947 68.0591 6.41947 65.8297C6.41947 61.0854 13.4926 55.0341 25.2894 50.9211C26.7208 50.422 28.2192 49.9517 29.7742 49.5099C31.4045 54.8133 33.5433 60.3581 36.1242 65.9651C33.5099 71.6554 31.3408 77.2886 29.6944 82.6541C28.5859 82.3355 27.5119 82.0002 26.4784 81.6472ZM32.7784 38.7639C30.3299 26.2502 31.956 16.8104 36.0482 14.4416C40.407 11.9182 50.0456 15.5161 60.2044 24.5364C60.8537 25.1129 61.5056 25.7164 62.1594 26.3407C58.3739 30.4054 54.6333 35.0331 51.0602 40.0758C44.9326 40.6438 39.067 41.5561 33.6741 42.7779C33.335 41.414 33.0347 40.074 32.7784 38.7639ZM88.9796 52.6414C87.6904 50.4146 86.3669 48.2404 85.0176 46.1255C89.1747 46.6511 93.1576 47.3487 96.8979 48.2023C95.7749 51.8012 94.3753 55.564 92.7278 59.4214C91.546 57.1777 90.296 54.9153 88.9796 52.6414ZM66.0609 30.3185C68.6282 33.0998 71.1992 36.2052 73.728 39.5744C71.1797 39.4541 68.5999 39.3914 65.9988 39.3914C63.4222 39.3914 60.8614 39.4527 58.3289 39.5709C60.8602 36.233 63.4535 33.1318 66.0609 30.3185ZM42.9954 52.6799C41.7076 54.913 40.4807 57.163 39.3175 59.4173C37.6966 55.5733 36.31 51.7933 35.1773 48.1434C38.8947 47.3115 42.8588 46.6313 46.9894 46.1158C45.6211 48.2501 44.2867 50.4403 42.9954 52.6794V52.6799ZM47.1084 85.9406C42.8407 85.4645 38.817 84.8193 35.1006 84.0104C36.2513 80.2953 37.6686 76.4347 39.3237 72.5079C40.49 74.7605 41.7217 77.0114 43.0174 79.2494H43.0177C44.3375 81.5294 45.7049 83.7627 47.1084 85.9406ZM66.2149 101.733C63.5769 98.887 60.9456 95.7385 58.3757 92.3519C60.8704 92.4497 63.4138 92.4998 65.9988 92.4998C68.6544 92.4998 71.2797 92.44 73.8637 92.325C71.3265 95.7726 68.7648 98.926 66.2149 101.733ZM92.7809 72.3077C94.5224 76.277 95.9904 80.1175 97.156 83.7692C93.3783 84.631 89.2997 85.3251 85.0023 85.8409C86.3548 83.6975 87.6899 81.486 89.0019 79.2111C90.3291 76.9096 91.5894 74.6046 92.7809 72.3077ZM84.1806 76.4305C82.1439 79.9618 80.053 83.333 77.9303 86.5151C74.064 86.7915 70.0698 86.9339 65.9988 86.9339C61.9442 86.9339 58.0003 86.808 54.2024 86.5614C51.9941 83.3376 49.8577 79.9565 47.8341 76.4609H47.8345C45.8162 72.9747 43.9585 69.4591 42.2753 65.9633C43.9581 62.4593 45.8108 58.9397 47.8176 55.4599L47.8171 55.4606C49.8292 51.9714 51.9468 48.6068 54.1347 45.4031C58.0095 45.1102 61.9829 44.9574 65.9985 44.9574H65.9988C70.0324 44.9574 74.0109 45.1114 77.8846 45.4068C80.0391 48.5871 82.1423 51.9408 84.1623 55.4304C86.2052 58.9592 88.0819 62.4553 89.779 65.8842C88.087 69.3719 86.2145 72.9033 84.1806 76.4305ZM95.6625 14.276C100.025 16.7921 101.722 26.9393 98.9809 40.2453C98.8061 41.0944 98.6092 41.9592 98.3953 42.8356C92.9899 41.5884 87.1201 40.6602 80.9746 40.0837C77.3946 34.9855 73.6846 30.3507 69.9608 26.3381C70.962 25.375 71.9617 24.4566 72.9573 23.5899C82.5762 15.219 91.5664 11.914 95.6625 14.276ZM65.9988 54.1952C72.4242 54.1952 77.6332 59.404 77.6332 65.8297C77.6332 72.2551 72.4242 77.4641 65.9988 77.4641C59.5733 77.4641 54.3643 72.2551 54.3643 65.8297C54.3643 59.404 59.5733 54.1952 65.9988 54.1952Z" fill="#00D8FF"/>
</g>
<defs>
<clipPath id="clip0_99_589">
<rect width="130.29" height="130.29" fill="white" transform="translate(0.85376 0.853659)"/>
</clipPath>
</defs>
</svg>
