<svg width="131" height="131" viewBox="0 0 131 131" fill="none" xmlns="http://www.w3.org/2000/svg">
<path d="M89.3533 88.4339C93.8507 87.9762 97.2628 84.1645 97.1076 79.5898C96.9528 75.0157 93.0752 71.356 88.4225 71.356H88.1126C83.3042 71.5086 79.5823 75.4729 79.7375 80.1997C79.8927 82.487 80.823 84.4692 82.2188 85.8415C76.9458 96.0579 68.8811 103.529 56.7841 109.781C48.5642 114.05 40.0343 115.575 31.5045 114.508C24.5253 113.593 19.0971 110.544 15.6846 105.511C10.722 98.04 10.2569 89.9584 14.4444 81.8771C17.3913 76.0828 22.0435 71.8133 24.9904 69.6786C24.3701 67.6964 23.4394 64.342 22.9742 61.9025C0.485908 77.9128 2.81248 99.5649 9.63653 109.781C14.7543 117.405 25.1456 122.132 36.6223 122.132C39.7239 122.132 42.8256 121.827 45.9277 121.065C65.7795 117.253 80.8234 105.664 89.3533 88.4339V88.4339ZM116.649 69.5265C104.862 55.9556 87.4923 48.4843 67.6405 48.4843H65.1592C63.7633 45.7397 60.8164 43.9096 57.5596 43.9096H57.2492C52.4418 44.0622 48.7198 48.0265 48.8746 52.7537C49.0298 57.3279 52.9069 60.9875 57.5596 60.9875H57.8695C61.2815 60.8349 64.2284 58.7002 65.4691 55.803H68.2608C80.0479 55.803 91.2142 59.1575 101.296 65.7143C109.05 70.7462 114.633 77.303 117.735 85.2316C120.371 91.6358 120.216 97.8874 117.424 103.225C113.082 111.306 105.793 115.728 96.1773 115.728C89.9736 115.728 84.0803 113.898 80.9782 112.525C79.2724 114.05 76.1703 116.49 73.9989 118.015C80.6682 121.064 87.4923 122.742 94.0059 122.742C108.895 122.742 119.906 114.66 124.094 106.579C128.591 97.7349 128.281 82.487 116.649 69.5265V69.5265ZM37.863 91.0255C38.0182 95.6001 41.8953 99.2593 46.548 99.2593H46.8584C51.6663 99.1072 55.3882 95.1424 55.233 90.4156C55.0783 85.841 51.2007 82.1818 46.548 82.1818H46.2381C45.9277 82.1818 45.4621 82.1818 45.1526 82.334C38.7937 71.9654 36.1572 60.6824 37.0879 48.4838C37.7078 39.335 40.8099 31.4059 46.2381 24.8491C50.7355 19.2073 59.4206 16.4627 65.3144 16.3106C81.7537 16.0055 88.7324 36.1326 89.198 44.2143C91.2142 44.6716 94.6262 45.7392 96.9528 46.5016C95.0914 21.8003 79.5823 8.99185 64.694 8.99185C50.7355 8.99185 37.863 18.9031 32.7447 33.5411C25.6107 53.0584 30.2634 71.8133 38.9484 86.6039C38.1734 87.671 37.7078 89.3485 37.863 91.026V91.0255Z" fill="#764ABC"/>
</svg>
