<svg width="131" height="131" viewBox="0 0 131 131" fill="none" xmlns="http://www.w3.org/2000/svg">
<g clip-path="url(#clip0_99_601)">
<path d="M26.8936 17.6393C26.8936 35.0582 37.7117 45.5096 59.3478 51.0103L82.2674 56.3276C102.803 61.0949 115.272 72.8298 115.272 91.8989C115.455 100.15 112.705 108.218 107.754 114.818C107.754 95.7494 97.8527 85.4814 74.1997 79.2472L51.6468 74.1132C33.4944 70.0794 19.5593 60.3615 19.5593 39.6422C19.5593 31.7578 22.1263 23.8735 26.8936 17.6393Z" fill="#F04939"/>
<path d="M93.6354 87.1316C103.353 93.3657 107.754 102.167 107.754 114.818C99.5028 125.27 85.3843 130.954 68.6988 130.954C40.6452 130.954 20.6593 117.019 16.4421 92.999H43.3956C46.8794 104 56.0472 109.134 68.5155 109.134C83.3674 109.318 93.452 101.25 93.6354 87.1316ZM26.8935 17.456C34.7778 7.18799 48.3462 0.953857 64.8483 0.953857C93.6354 0.953857 110.137 16.1725 114.355 37.4419H88.318C85.3843 29.0075 78.2334 22.4066 65.2151 22.4066C51.0966 22.59 41.562 30.6577 41.012 43.4926C31.5636 38.282 26.5268 28.0907 26.8935 17.456Z" fill="#F37368"/>
</g>
<defs>
<clipPath id="clip0_99_601">
<rect width="130" height="130" fill="white" transform="translate(0.953857 0.953857)"/>
</clipPath>
</defs>
</svg>
