<svg width="131" height="131" viewBox="0 0 131 131" fill="none" xmlns="http://www.w3.org/2000/svg">
<path fill-rule="evenodd" clip-rule="evenodd" d="M2.06982 57.8652C2.06982 58.5792 2.28006 59.0504 2.39787 59.5085C3.16568 62.4873 4.81607 65.0437 6.7742 67.3755C9.56311 70.6987 12.9787 73.3738 16.4775 75.8895C19.5122 78.0711 22.6088 80.2039 25.6557 82.3692C26.1787 82.7409 26.6733 83.1685 27.2411 83.6245C26.7526 83.8886 26.3463 84.1212 25.9238 84.3355C21.9029 86.3748 18.0344 88.661 14.4686 91.4306C12.3195 93.1003 10.2415 94.8746 8.77397 97.1933C6.41264 100.923 5.57678 104.896 7.33686 109.138C7.85076 110.377 8.63482 111.448 9.74084 112.239C10.0994 112.495 10.5015 112.749 10.921 112.848C11.9955 113.101 13.0904 113.267 14.1781 113.467L17.2585 113.465C20.6649 113.161 23.7656 111.994 26.5677 110.06C30.9471 107.038 33.8975 102.985 35.166 97.7844C36.0882 94.0042 36.1258 90.22 35.039 86.4571C34.935 86.1085 34.8151 85.7648 34.6795 85.4272C34.5475 85.089 34.3921 84.76 34.2093 84.3385L41.1927 80.3227L41.2973 80.4121C41.1704 80.8275 41.0353 81.2419 40.9205 81.6613C40.0908 84.6919 39.5393 87.7754 39.7373 90.9208C39.9486 94.2723 40.884 97.4096 42.8462 100.21C44.4326 102.475 48.2127 102.559 49.8987 100.286C50.4969 99.4784 51.0768 98.6344 51.5125 97.7336C52.651 95.3824 53.7052 92.9896 54.7929 90.613L54.9829 90.1783C54.9047 91.3037 54.8133 92.2919 54.7716 93.2811C54.7066 94.8258 54.797 96.3615 55.3251 97.8311C55.7771 99.0884 56.5459 100.028 57.9861 100.193C58.9712 100.306 59.7563 99.8552 60.4804 99.2834C61.6023 98.3969 62.5321 97.2915 63.2135 96.0344C65.1442 92.4889 67.1267 88.9647 68.8766 85.3297C70.7697 81.3983 72.4252 77.352 74.1833 73.3535L74.4737 72.6446C74.8891 74.2767 75.1786 75.8753 75.7118 77.3886C76.3313 79.1446 77.0981 80.859 77.9329 82.5256C78.328 83.3127 78.2823 83.8236 77.7349 84.4837C75.4437 87.2462 73.192 90.0422 70.9383 92.8352C70.4397 93.4517 69.943 94.0794 69.5276 94.7527C69.2756 95.1779 69.11 95.6487 69.0401 96.138C68.9702 96.5885 69.0775 97.0486 69.3393 97.4218C69.6012 97.795 69.9973 98.0523 70.4447 98.1398C71.3477 98.3343 72.2736 98.4003 73.1951 98.3358C76.3404 98.1043 79.1964 97.0003 81.7212 95.1295C84.9926 92.7062 86.0427 89.3994 85.2505 85.4801C85.0362 84.4167 84.6574 83.3828 84.2887 82.358C84.1232 81.8959 84.112 81.5719 84.4136 81.1413C87.0289 77.4069 89.2633 73.4449 91.3412 69.3915C91.4235 69.2321 91.5078 69.0726 91.652 68.902C92.3254 72.4059 93.339 75.7829 95.1549 78.847C94.2287 79.7398 93.3115 80.5492 92.4818 81.4409C90.6547 83.4051 89.0703 85.5379 88.2436 88.139C87.8881 89.2602 87.6149 90.3998 87.7733 91.5972C88.0191 93.4568 89.5426 94.6654 91.3717 94.2419C95.2859 93.3359 98.6649 91.4915 101.134 88.2243C102.795 86.0244 102.947 83.5707 102.251 81.0001C102.06 80.3014 101.834 79.6138 101.59 78.8125C102.556 78.5129 103.497 78.1533 104.471 77.9309C109.528 76.7772 114.53 76.9783 119.403 78.8044C122.248 79.8708 124.546 81.6552 125.909 84.4624C127.574 87.8942 126.653 91.1503 123.419 93.3197C123.117 93.5218 122.772 93.6812 122.522 93.9341C122.442 94.0269 122.382 94.1353 122.346 94.2524C122.31 94.3696 122.299 94.4929 122.314 94.6146C122.335 94.7395 122.665 94.8959 122.855 94.8939C123.918 94.8858 124.781 94.3282 125.608 93.7554C127.682 92.3203 129.196 90.3896 129.522 87.8475L129.586 87.6565L129.507 86.0011C129.476 85.9056 129.531 85.8112 129.524 85.739C129.083 82.0371 127.105 79.1659 124.229 76.9153C120.898 74.3102 116.964 73.2377 112.804 73.0681C109.431 72.9229 106.061 73.4415 102.887 74.5946C101.976 74.9247 101.073 75.3157 100.157 75.6844C100.034 75.4619 99.9019 75.2487 99.7933 75.0283C98.8528 73.1026 97.7133 71.2623 97.4614 69.0544C97.2826 67.4862 97.0633 65.9201 97.436 64.3693C97.7945 62.8773 98.2617 61.4108 98.7015 59.9391C98.9279 59.1815 98.7685 58.7569 98.0454 58.4157C97.7934 58.29 97.5245 58.2018 97.2471 58.1537C95.4697 57.8957 93.7168 58.043 91.9953 58.5437C91.3859 58.7214 90.9431 59.0626 90.808 59.737C90.7308 60.124 90.5734 60.4947 90.4637 60.8765C90.0138 62.464 89.6949 64.0819 88.9677 65.5941C87.1457 69.3875 85.0657 73.0376 82.9369 76.6614C82.7064 77.0524 82.4636 77.4363 82.1732 77.9106C81.4257 76.3465 80.6284 74.9429 80.3867 73.2976C80.1135 71.437 79.8982 69.5794 80.3613 67.733C80.7056 66.3558 81.1555 65.004 81.5699 63.6451C81.7659 62.9992 81.6755 62.66 81.0905 62.3197C80.795 62.1481 80.4608 61.9958 80.1277 61.946C78.3053 61.6684 76.4432 61.8207 74.6901 62.3908C74.1386 62.5696 73.8491 62.9261 73.6805 63.4948C73.1849 65.1726 72.7624 66.8911 72.0667 68.4866C69.2494 74.946 66.3508 81.3719 63.4552 87.7967C62.8509 89.1383 62.143 90.4333 61.4615 91.7394C61.2889 92.0705 61.037 92.3619 60.8217 92.6727C60.649 92.4686 60.582 92.3284 60.583 92.1883C60.5881 91.3626 60.4896 90.5125 60.647 89.7142C61.1304 87.2999 61.6647 84.896 62.2497 82.5043C62.727 80.5279 63.2826 78.5697 63.8117 76.6065C63.9894 75.9494 63.9925 75.335 63.5202 74.7825C62.727 73.8573 61.0695 73.6541 60.0864 74.3671L59.6517 74.6129L59.736 73.9121C59.9432 72.41 59.9848 70.9129 59.5725 69.4332C59.0586 67.5888 57.7423 66.5275 55.8289 66.5864C54.9372 66.6138 54.0008 66.7662 53.1751 67.0912C49.7026 68.4521 47.0326 70.8622 44.7596 73.7618C44.5489 74.031 44.2877 74.2566 43.9908 74.426C41.0526 76.0551 38.1052 77.6638 35.1589 79.2787L31.8794 81.0753C30.9999 80.2364 30.2006 79.366 29.2937 78.6276C26.524 76.3689 23.7097 74.166 20.9208 71.9326C18.4488 69.9532 16.054 67.8915 14.2218 65.2701C12.8588 63.3201 11.9803 61.1863 11.896 58.7752C11.7894 55.7029 12.6608 52.8958 14.2248 50.2826C16.2256 46.9391 18.9546 44.2558 21.9547 41.8255C25.1286 39.2559 28.5614 37.0744 32.1191 35.0827C37.0967 32.2969 42.2165 29.8309 47.7059 28.2029C53.3345 26.5332 59.0454 25.5775 64.936 26.2437C67.2516 26.5058 69.5002 27.0359 71.565 28.1683C73.1463 29.0347 74.4433 30.1691 75.0465 31.9424C75.6417 33.6872 75.6234 35.4554 75.2111 37.2277C74.3732 40.8169 72.4079 43.7755 69.9349 46.4191C65.8785 50.7528 60.9304 53.7032 55.3597 55.6522C52.1567 56.7743 48.8242 57.4851 45.4421 57.7677C42.6704 58.0003 39.9567 57.7545 37.3323 56.7907C35.5946 56.1519 34.0813 55.1748 32.8646 53.757C32.6472 53.5031 32.369 53.2279 31.9637 53.4655C31.5666 53.6991 31.4965 54.0769 31.6296 54.4598C31.852 55.0956 32.0572 55.7578 32.4035 56.3265C33.2739 57.7535 34.5434 58.7884 35.9409 59.6761C38.6252 61.3833 41.6254 61.9572 44.7362 62.0902C49.4569 62.2944 54.0627 61.5895 58.6036 60.323C65.0863 58.5152 70.723 55.3221 75.2436 50.2846C79.0075 46.0901 81.6958 41.3562 82.2717 35.6403C82.553 32.8504 82.2534 30.1173 80.9473 27.5722C79.5305 24.8147 77.2779 22.7642 74.5844 21.3515C70.6621 19.2948 66.429 18.0974 62.0597 18.0974H57.6824C52.391 18.0974 47.2753 19.6137 42.3028 21.4226C38.5389 22.7926 34.8481 24.4095 31.265 26.199C23.4619 30.098 16.1951 34.7994 10.2263 41.2638C7.25256 44.4844 4.73482 48.038 3.28654 52.2224C2.84942 53.4717 2.47287 54.7413 2.15818 56.0269M30.4322 92.6026C30.094 97.1313 28.0414 100.803 24.6868 103.777C22.7997 105.448 20.6354 106.639 18.1147 107.057C17.2006 107.208 16.2652 107.245 15.3786 106.866C14.1141 106.326 13.8308 105.203 13.8064 104.008C13.7688 102.103 14.4361 100.38 15.3512 98.7411C16.5455 96.6042 18.2965 94.9751 20.1662 93.4537C23.1115 91.0558 26.3067 89.0266 29.579 87.1112L29.8258 87.0096C30.3316 88.8783 30.5723 90.7237 30.4322 92.6026V92.6026ZM55.9833 72.9208C55.7446 74.3671 55.446 75.8144 55.0235 77.2159C53.563 82.0676 51.6872 86.7689 49.659 91.4072C49.2842 92.2655 48.7388 93.0485 48.2645 93.862C48.1838 93.9871 48.0872 94.1011 47.9771 94.2012C47.3901 94.7812 46.8335 94.7507 46.5369 93.992C46.1916 93.1104 45.9794 92.1669 45.7965 91.2336C45.6736 90.6069 45.7031 89.9488 45.6645 89.3069C45.7041 84.7427 47.0965 80.5949 49.4589 76.7335C50.4329 75.141 51.4932 73.6237 53.1131 72.6162C53.617 72.3028 54.1623 72.0615 54.733 71.8991C55.5963 71.6564 56.1265 72.0555 55.9833 72.9208V72.9208ZM73.4155 95.1305L79.6808 87.815C79.9419 90.5318 75.3238 95.9552 73.4155 95.1305ZM93.4263 90.2078C92.9835 90.4617 92.5011 90.6445 92.0471 90.8791C91.6317 91.0944 91.4946 90.8771 91.4824 90.5196C91.4763 90.2721 91.5081 90.0252 91.5769 89.7873C92.4229 86.8034 93.9798 84.2562 96.2965 82.1844L96.459 82.1011C97.5609 85.1835 96.2873 88.5686 93.4263 90.2078Z" fill="#CB6699"/>
</svg>
