<svg width="131" height="131" viewBox="0 0 131 131" fill="none" xmlns="http://www.w3.org/2000/svg">
<g clip-path="url(#clip0_99_614)">
<path fill-rule="evenodd" clip-rule="evenodd" d="M120.59 0.746948H10.9028C5.29369 0.746948 0.746582 5.29406 0.746582 10.9032V120.591C0.746582 126.2 5.29369 130.747 10.9028 130.747H120.59C126.199 130.747 130.747 126.2 130.747 120.591V10.9032C130.747 5.29406 126.199 0.746948 120.59 0.746948ZM77.1815 116.576V102.551C79.7256 104.684 82.4892 106.284 85.4726 107.35C88.4554 108.417 91.4673 108.95 94.5086 108.95C96.2925 108.95 97.85 108.789 99.1805 108.468C100.511 108.146 101.623 107.701 102.514 107.131C103.406 106.561 104.072 105.889 104.51 105.115C104.949 104.341 105.168 103.5 105.168 102.595C105.168 101.367 104.817 100.272 104.115 99.3073C103.414 98.3429 102.456 97.4517 101.242 96.6336C100.028 95.8155 98.5883 95.0269 96.9212 94.2672C95.2546 93.507 93.4559 92.7331 91.5257 91.944C86.6126 89.8985 82.9503 87.4001 80.5376 84.4492C78.1245 81.4978 76.9185 77.9329 76.9185 73.7546C76.9185 70.4818 77.5766 67.6695 78.8923 65.3173C80.2086 62.9652 81.9996 61.0294 84.266 59.5095C86.5324 57.9901 89.1573 56.8724 92.1401 56.1569C95.123 55.4409 98.2811 55.0829 101.615 55.0829C104.89 55.0829 107.793 55.2799 110.322 55.6745C112.852 56.0691 115.184 56.6754 117.319 57.4935V70.5986C116.266 69.8684 115.118 69.2255 113.876 68.6704C112.632 68.1149 111.353 67.6548 110.037 67.2897C108.721 66.9241 107.413 66.6539 106.111 66.4787C104.81 66.3035 103.575 66.2157 102.405 66.2157C100.796 66.2157 99.3338 66.369 98.0181 66.6757C96.7018 66.983 95.5907 67.4136 94.6843 67.9691C93.7778 68.5242 93.0755 69.1889 92.5784 69.9633C92.0812 70.7377 91.8329 71.6066 91.8329 72.5709C91.8329 73.6231 92.1107 74.5651 92.6662 75.3979C93.2218 76.2307 94.0114 77.0199 95.0352 77.7648C96.0584 78.5103 97.3015 79.2405 98.7635 79.9566C100.226 80.6726 101.878 81.4099 103.72 82.1701C106.235 83.2218 108.495 84.3395 110.498 85.5227C112.501 86.7064 114.219 88.043 115.652 89.5334C117.085 91.0233 118.182 92.7255 118.942 94.6394C119.702 96.5534 120.083 98.7817 120.083 101.324C120.083 104.83 119.417 107.774 118.087 110.155C116.756 112.537 114.95 114.465 112.669 115.941C110.388 117.416 107.734 118.476 104.707 119.119C101.681 119.761 98.4858 120.083 95.123 120.083C91.6719 120.083 88.3894 119.791 85.275 119.206C82.1606 118.622 79.4626 117.745 77.1815 116.576ZM71.8403 67.6472H53.8038V119.067H39.5154V67.6472H21.5669V56.0985H71.8403V67.6472Z" fill="#3178C6"/>
</g>
<defs>
<clipPath id="clip0_99_614">
<rect width="130" height="130" fill="white" transform="translate(0.746582 0.746948)"/>
</clipPath>
</defs>
</svg>
