<svg width="626" height="577" viewBox="0 0 626 577" fill="none" xmlns="http://www.w3.org/2000/svg">
<path d="M383 91C383 141.258 342.258 182 292 182C241.742 182 201 141.258 201 91C201 40.7421 241.742 0 292 0C342.258 0 383 40.7421 383 91Z" fill="white"/>
<path d="M332.047 71.4936C330.758 71.0498 329.422 70.6299 328.046 70.2328C328.272 69.31 328.48 68.3992 328.664 67.5038C331.693 52.8018 329.713 40.9577 322.951 37.0582C316.466 33.319 305.862 37.2177 295.152 46.5381C294.123 47.4343 293.09 48.3832 292.058 49.3777C291.37 48.7197 290.683 48.0839 289.998 47.4757C278.774 37.5097 267.523 33.31 260.768 37.2208C254.29 40.9708 252.372 52.1053 255.098 66.0385C255.361 67.3843 255.669 68.7587 256.017 70.156C254.425 70.608 252.888 71.0899 251.417 71.6025C238.258 76.1903 229.854 83.3806 229.854 90.8388C229.854 98.5417 238.875 106.268 252.582 110.953C253.663 111.322 254.786 111.672 255.942 112.004C255.567 113.515 255.24 114.996 254.966 116.44C252.367 130.132 254.397 141.003 260.857 144.73C267.53 148.578 278.73 144.622 289.636 135.09C290.498 134.336 291.363 133.537 292.229 132.699C293.352 133.781 294.474 134.805 295.589 135.765C306.153 144.855 316.586 148.525 323.04 144.789C329.707 140.929 331.874 129.251 329.061 115.042C328.846 113.957 328.596 112.848 328.315 111.72C329.102 111.487 329.874 111.247 330.627 110.998C344.876 106.277 354.146 98.6446 354.146 90.8388C354.146 83.3536 345.471 76.1149 332.047 71.4936ZM328.957 105.958C328.277 106.183 327.58 106.4 326.869 106.611C325.296 101.631 323.173 96.3357 320.575 90.8647C323.054 85.524 325.095 80.2963 326.624 75.3487C327.896 75.7167 329.13 76.1047 330.319 76.5142C341.821 80.4737 348.837 86.328 348.837 90.8388C348.837 95.6437 341.26 101.881 328.957 105.958ZM323.852 116.073C325.096 122.356 325.273 128.037 324.449 132.477C323.709 136.468 322.22 139.128 320.38 140.194C316.463 142.461 308.086 139.514 299.052 131.74C298.017 130.849 296.973 129.897 295.927 128.89C299.429 125.06 302.929 120.607 306.346 115.661C312.354 115.128 318.031 114.257 323.179 113.066C323.433 114.089 323.658 115.092 323.852 116.073ZM272.228 139.802C268.401 141.153 265.353 141.192 263.51 140.13C259.59 137.868 257.96 129.14 260.183 117.431C260.438 116.09 260.741 114.712 261.09 113.304C266.182 114.43 271.817 115.24 277.84 115.729C281.279 120.568 284.881 125.016 288.51 128.911C287.717 129.676 286.927 130.405 286.142 131.092C281.319 135.307 276.487 138.298 272.228 139.802ZM254.299 105.928C248.238 103.857 243.233 101.164 239.802 98.2267C236.72 95.5866 235.163 92.9656 235.163 90.8388C235.163 86.3129 241.911 80.5401 253.165 76.6164C254.53 76.1403 255.959 75.6917 257.443 75.2702C258.998 80.3295 261.038 85.6191 263.501 90.968C261.007 96.3963 258.937 101.77 257.367 106.889C256.309 106.585 255.285 106.265 254.299 105.928ZM260.309 65.0189C257.973 53.0812 259.524 44.0759 263.428 41.8162C267.586 39.4089 276.781 42.8412 286.472 51.4463C287.092 51.9963 287.714 52.5719 288.337 53.1675C284.726 57.0452 281.158 61.4598 277.749 66.2704C271.903 66.8122 266.308 67.6826 261.163 68.8481C260.84 67.547 260.553 66.2686 260.309 65.0189ZM313.923 78.2576C312.693 76.1333 311.431 74.0591 310.143 72.0416C314.109 72.543 317.909 73.2085 321.477 74.0229C320.406 77.456 319.07 81.0457 317.499 84.7255C316.371 82.585 315.179 80.4268 313.923 78.2576ZM292.059 56.9622C294.508 59.6155 296.961 62.5779 299.373 65.7921C296.942 65.6773 294.481 65.6175 292 65.6175C289.542 65.6175 287.099 65.6759 284.683 65.7888C287.098 62.6045 289.572 59.6461 292.059 56.9622ZM270.055 78.2943C268.827 80.4246 267.657 82.5711 266.547 84.7215C265.001 81.0545 263.678 77.4485 262.597 73.9667C266.144 73.1731 269.925 72.5242 273.866 72.0324C272.56 74.0684 271.287 76.1583 270.055 78.2943ZM273.979 110.024C269.908 109.57 266.069 108.954 262.524 108.183C263.622 104.639 264.974 100.956 266.553 97.2096C267.665 99.3585 268.84 101.506 270.077 103.641C271.336 105.816 272.64 107.946 273.979 110.024ZM292.206 125.09C289.69 122.374 287.179 119.371 284.728 116.14C287.108 116.234 289.534 116.281 292 116.281C294.533 116.281 297.038 116.224 299.503 116.115C297.083 119.403 294.639 122.412 292.206 125.09ZM317.549 97.0187C319.211 100.805 320.611 104.469 321.723 107.953C318.119 108.775 314.228 109.437 310.129 109.929C311.419 107.884 312.693 105.774 313.944 103.604C315.21 101.409 316.413 99.2098 317.549 97.0187ZM309.345 100.952C307.402 104.32 305.407 107.536 303.382 110.572C299.694 110.836 295.884 110.972 292 110.972C288.132 110.972 284.37 110.851 280.747 110.616C278.64 107.541 276.602 104.315 274.671 100.981C272.746 97.655 270.974 94.3012 269.369 90.9662C270.974 87.6235 272.741 84.266 274.656 80.9463C276.575 77.6178 278.595 74.4087 280.682 71.3525C284.379 71.0731 288.169 70.9273 292 70.9273C295.848 70.9273 299.643 71.0742 303.339 71.356C305.394 74.3899 307.4 77.5892 309.327 80.9182C311.276 84.2846 313.067 87.6198 314.686 90.8908C313.072 94.218 311.285 97.5868 309.345 100.952ZM320.298 41.6582C324.46 44.0584 326.079 53.7385 323.464 66.4321C323.297 67.2421 323.109 68.0671 322.905 68.9032C317.749 67.7133 312.149 66.8279 306.287 66.2779C302.871 61.4144 299.332 56.993 295.78 53.1651C296.735 52.2463 297.688 51.3702 298.638 50.5434C307.814 42.5578 316.391 39.4049 320.298 41.6582ZM292 79.7399C298.13 79.7399 303.099 84.7089 303.099 90.8388C303.099 96.9685 298.13 101.938 292 101.938C285.87 101.938 280.901 96.9685 280.901 90.8388C280.901 84.7089 285.87 79.7399 292 79.7399Z" fill="#00D8FF"/>
<path d="M123 392.5C123 426.466 95.4655 454 61.5 454C27.5345 454 0 426.466 0 392.5C0 358.534 27.5345 331 61.5 331C95.4655 331 123 358.534 123 392.5Z" fill="white"/>
<path d="M97.5 355.75V392.125L79.3125 410.312L61.125 428.5L42.9375 410.312L61.125 392.125L97.5 355.75Z" fill="#59529D"/>
<path d="M97.5 392.125V428.5L79.3125 410.312L97.5 392.125Z" fill="#5271B4"/>
<path d="M61.125 392.125L42.9375 410.312L24.75 428.5V355.75L61.125 392.125Z" fill="#BB4B96"/>
<path d="M261 518.5C261 550.809 234.809 577 202.5 577C170.191 577 144 550.809 144 518.5C144 486.191 170.191 460 202.5 460C234.809 460 261 486.191 261 518.5Z" fill="white"/>
<path d="M166.94 524.962V494.504L193.315 509.733V519.886L175.713 509.733V530.038L166.94 524.962Z" fill="#1FA6CA"/>
<path d="M193.315 509.733L219.745 494.504V525.017L202.143 535.115L193.315 530.038L210.972 519.886V509.733L193.315 519.886V509.733Z" fill="#1C7FB6"/>
<path d="M193.315 530.038V540.191L210.972 550.344V540.191L193.315 530.038Z" fill="#1FA6CA"/>
<path d="M210.972 550.344L237.347 535.115V514.809L228.518 519.886V530.038L210.972 540.191V550.344ZM228.574 509.733V499.58L237.402 494.504V504.656L228.574 509.733Z" fill="#1C7FB6"/>
<path d="M391 459.5C391 482.972 371.972 502 348.5 502C325.028 502 306 482.972 306 459.5C306 436.028 325.028 417 348.5 417C371.972 417 391 436.028 391 459.5Z" fill="white"/>
<path d="M334.355 442.004C334.355 448.312 338.273 452.096 346.108 454.088L354.408 456.014C361.844 457.74 366.359 461.99 366.359 468.895C366.426 471.883 365.43 474.805 363.637 477.195C363.637 470.29 360.052 466.572 351.486 464.314L343.319 462.455C336.746 460.994 331.699 457.475 331.699 449.972C331.699 447.117 332.629 444.261 334.355 442.004Z" fill="#F04939"/>
<path d="M358.524 467.169C362.044 469.427 363.637 472.614 363.637 477.195C360.649 480.98 355.536 483.038 349.494 483.038C339.335 483.038 332.098 477.992 330.57 469.294H340.331C341.593 473.278 344.913 475.137 349.428 475.137C354.806 475.203 358.458 472.282 358.524 467.169ZM334.355 441.937C337.21 438.219 342.124 435.962 348.1 435.962C358.524 435.962 364.5 441.473 366.027 449.175H356.599C355.536 446.121 352.947 443.73 348.233 443.73C343.12 443.797 339.667 446.718 339.468 451.366C336.046 449.479 334.222 445.789 334.355 441.937Z" fill="#F37368"/>
<path d="M626 415C626 458.63 590.63 494 547 494C503.37 494 468 458.63 468 415C468 371.37 503.37 336 547 336C590.63 336 626 371.37 626 415Z" fill="white"/>
<path d="M596.372 410.43L551.569 365.629C548.991 363.049 544.806 363.049 542.224 365.629L532.921 374.933L544.722 386.734C547.466 385.809 550.61 386.43 552.796 388.616C554.993 390.815 555.609 393.986 554.661 396.739L566.035 408.113C568.786 407.165 571.962 407.778 574.159 409.979C577.231 413.049 577.231 418.026 574.159 421.098C573.428 421.829 572.561 422.408 571.607 422.804C570.653 423.199 569.63 423.403 568.597 423.403C567.564 423.403 566.542 423.199 565.587 422.804C564.633 422.408 563.766 421.829 563.036 421.098C561.939 420 561.191 418.603 560.886 417.081C560.582 415.559 560.735 413.981 561.325 412.546L550.718 401.939L550.717 429.855C551.486 430.234 552.189 430.735 552.797 431.341C555.868 434.411 555.868 439.386 552.797 442.463C549.725 445.533 544.746 445.533 541.677 442.463C538.606 439.387 538.606 434.412 541.677 431.341C542.413 430.604 543.288 430.021 544.252 429.625V401.452C543.288 401.058 542.412 400.474 541.677 399.736C539.351 397.411 538.791 393.997 539.984 391.139L528.349 379.504L497.629 410.223C496.39 411.462 495.693 413.144 495.693 414.897C495.693 416.65 496.39 418.331 497.629 419.571L542.433 464.372C545.013 466.952 549.196 466.952 551.78 464.372L596.373 419.779C597.612 418.539 598.308 416.857 598.308 415.104C598.308 413.351 597.611 411.67 596.372 410.43Z" fill="#F34F29"/>
<path d="M165 192.5C165 222.6 140.6 247 110.5 247C80.4005 247 56 222.6 56 192.5C56 162.4 80.4005 138 110.5 138C140.6 138 165 162.4 165 192.5Z" fill="white"/>
<path d="M124.744 204.196C127.373 203.928 129.368 201.7 129.277 199.025C129.187 196.351 126.92 194.212 124.2 194.212H124.018C121.207 194.301 119.031 196.618 119.122 199.382C119.213 200.719 119.757 201.878 120.573 202.68C117.49 208.653 112.775 213.021 105.703 216.675C100.898 219.171 95.9111 220.063 90.9245 219.439C86.8443 218.904 83.6709 217.121 81.6759 214.179C78.7747 209.812 78.5028 205.087 80.9509 200.362C82.6737 196.975 85.3934 194.479 87.1162 193.231C86.7536 192.072 86.2094 190.111 85.9375 188.685C72.7905 198.045 74.1507 210.703 78.1401 216.675C81.132 221.133 87.207 223.896 93.9164 223.896C95.7297 223.896 97.5429 223.718 99.3565 223.272C110.962 221.044 119.757 214.269 124.744 204.196ZM140.702 193.142C133.811 185.208 123.656 180.84 112.05 180.84H110.599C109.783 179.236 108.061 178.166 106.157 178.166H105.975C103.165 178.255 100.989 180.573 101.079 183.336C101.17 186.011 103.437 188.15 106.157 188.15H106.338C108.333 188.061 110.055 186.813 110.781 185.119H112.413C119.304 185.119 125.832 187.08 131.725 190.913C136.259 193.855 139.523 197.688 141.336 202.324C142.877 206.068 142.787 209.722 141.155 212.842C138.616 217.567 134.355 220.152 128.733 220.152C125.106 220.152 121.661 219.082 119.848 218.28C118.85 219.171 117.037 220.598 115.767 221.489C119.666 223.272 123.656 224.253 127.464 224.253C136.168 224.253 142.605 219.528 145.054 214.804C147.683 209.633 147.501 200.719 140.702 193.142ZM94.6417 205.711C94.7324 208.385 96.9991 210.524 99.7191 210.524H99.9006C102.711 210.435 104.887 208.118 104.797 205.354C104.706 202.68 102.439 200.541 99.7191 200.541H99.5379C99.3565 200.541 99.0843 200.541 98.9034 200.63C95.1858 194.568 93.6445 187.972 94.1886 180.84C94.551 175.492 96.3645 170.856 99.5379 167.023C102.167 163.725 107.245 162.12 110.69 162.031C120.301 161.853 124.381 173.62 124.653 178.344C125.832 178.612 127.826 179.236 129.187 179.681C128.098 165.241 119.031 157.753 110.328 157.753C102.167 157.753 94.6417 163.547 91.6495 172.104C87.4789 183.515 90.1989 194.479 95.2763 203.126C94.8232 203.75 94.551 204.73 94.6417 205.711Z" fill="#764ABC"/>
<path d="M535 208.5C535 238.047 511.047 262 481.5 262C451.953 262 428 238.047 428 208.5C428 178.953 451.953 155 481.5 155C511.047 155 535 178.953 535 208.5Z" fill="white"/>
<path fill-rule="evenodd" clip-rule="evenodd" d="M446.676 204.149C446.676 204.539 446.791 204.796 446.855 205.047C447.275 206.673 448.176 208.07 449.245 209.343C450.769 211.158 452.634 212.619 454.545 213.993C456.202 215.185 457.894 216.349 459.558 217.532C459.843 217.735 460.113 217.969 460.424 218.218C460.157 218.362 459.935 218.489 459.704 218.606C457.508 219.72 455.395 220.968 453.448 222.481C452.274 223.393 451.139 224.362 450.338 225.628C449.048 227.665 448.591 229.835 449.553 232.152C449.833 232.829 450.262 233.413 450.866 233.845C451.062 233.985 451.281 234.124 451.51 234.178C452.097 234.316 452.695 234.407 453.289 234.516L454.972 234.515C456.832 234.349 458.525 233.712 460.056 232.656C462.448 231.005 464.059 228.792 464.752 225.951C465.255 223.886 465.276 221.82 464.682 219.765C464.626 219.574 464.56 219.387 464.486 219.202C464.414 219.017 464.329 218.838 464.229 218.608L468.043 216.414L468.1 216.463C468.031 216.69 467.957 216.916 467.895 217.145C467.441 218.801 467.14 220.485 467.248 222.202C467.364 224.033 467.875 225.746 468.946 227.276C469.813 228.513 471.877 228.559 472.798 227.317C473.125 226.876 473.442 226.415 473.679 225.923C474.301 224.639 474.877 223.332 475.471 222.034L475.575 221.797C475.532 222.412 475.482 222.951 475.459 223.492C475.424 224.335 475.473 225.174 475.762 225.977C476.009 226.663 476.428 227.176 477.215 227.267C477.753 227.328 478.182 227.082 478.577 226.77C479.19 226.286 479.698 225.682 480.07 224.995C481.124 223.059 482.207 221.134 483.163 219.149C484.197 217.002 485.101 214.792 486.061 212.608L486.22 212.221C486.447 213.112 486.605 213.985 486.896 214.812C487.234 215.771 487.653 216.707 488.109 217.617C488.325 218.047 488.3 218.326 488.001 218.687C486.75 220.196 485.52 221.723 484.289 223.248C484.017 223.585 483.745 223.928 483.518 224.295C483.381 224.528 483.29 224.785 483.252 225.052C483.214 225.298 483.273 225.549 483.416 225.753C483.559 225.957 483.775 226.097 484.019 226.145C484.513 226.251 485.018 226.287 485.521 226.252C487.239 226.126 488.799 225.523 490.178 224.501C491.965 223.178 492.538 221.372 492.106 219.231C491.989 218.65 491.782 218.086 491.58 217.526C491.49 217.273 491.484 217.097 491.649 216.861C493.077 214.822 494.297 212.658 495.432 210.444C495.477 210.357 495.523 210.27 495.602 210.177C495.97 212.09 496.523 213.935 497.515 215.608C497.009 216.096 496.508 216.538 496.055 217.025C495.057 218.098 494.192 219.263 493.74 220.683C493.546 221.296 493.397 221.918 493.483 222.572C493.618 223.588 494.45 224.248 495.449 224.016C497.586 223.521 499.432 222.514 500.78 220.73C501.688 219.528 501.77 218.188 501.391 216.784C501.286 216.403 501.163 216.027 501.029 215.589C501.557 215.426 502.071 215.229 502.603 215.108C505.365 214.478 508.097 214.588 510.758 215.585C512.312 216.167 513.567 217.142 514.311 218.675C515.221 220.549 514.718 222.328 512.951 223.513C512.787 223.623 512.598 223.71 512.462 223.848C512.418 223.899 512.385 223.958 512.366 224.022C512.346 224.086 512.34 224.153 512.348 224.22C512.359 224.288 512.54 224.373 512.643 224.372C513.224 224.368 513.695 224.063 514.147 223.751C515.28 222.967 516.106 221.912 516.284 220.524L516.319 220.42L516.277 219.516C516.259 219.463 516.289 219.412 516.286 219.372C516.045 217.351 514.965 215.782 513.394 214.553C511.575 213.131 509.426 212.545 507.154 212.452C505.312 212.373 503.471 212.656 501.738 213.286C501.24 213.466 500.747 213.68 500.247 213.881C500.18 213.76 500.108 213.643 500.048 213.523C499.535 212.471 498.912 211.466 498.775 210.26C498.677 209.404 498.557 208.548 498.761 207.701C498.957 206.886 499.212 206.085 499.452 205.282C499.576 204.868 499.489 204.636 499.094 204.45C498.956 204.381 498.809 204.333 498.658 204.307C497.687 204.166 496.73 204.246 495.789 204.52C495.456 204.617 495.215 204.803 495.141 205.171C495.099 205.383 495.013 205.585 494.953 205.794C494.707 206.661 494.533 207.544 494.136 208.37C493.141 210.442 492.005 212.436 490.842 214.415C490.716 214.628 490.584 214.838 490.425 215.097C490.017 214.243 489.581 213.476 489.449 212.577C489.3 211.561 489.182 210.547 489.435 209.538C489.623 208.786 489.869 208.048 490.095 207.306C490.202 206.953 490.153 206.768 489.834 206.582C489.672 206.488 489.49 206.405 489.308 206.378C488.312 206.226 487.295 206.309 486.338 206.621C486.037 206.718 485.879 206.913 485.787 207.224C485.516 208.14 485.285 209.079 484.905 209.95C483.367 213.478 481.783 216.987 480.202 220.496C479.872 221.229 479.485 221.936 479.113 222.65C479.019 222.83 478.881 222.99 478.764 223.159C478.669 223.048 478.633 222.971 478.633 222.895C478.636 222.444 478.582 221.979 478.668 221.543C478.932 220.225 479.224 218.912 479.544 217.606C479.804 216.526 480.108 215.457 480.397 214.385C480.494 214.026 480.495 213.69 480.238 213.388C479.804 212.883 478.899 212.772 478.362 213.162L478.125 213.296L478.171 212.913C478.284 212.093 478.307 211.275 478.081 210.467C477.801 209.46 477.082 208.88 476.037 208.912C475.55 208.927 475.038 209.01 474.587 209.188C472.691 209.931 471.233 211.247 469.991 212.831C469.876 212.978 469.734 213.101 469.571 213.194C467.967 214.083 466.357 214.962 464.748 215.844L462.957 216.825C462.476 216.367 462.04 215.892 461.545 215.489C460.032 214.255 458.495 213.052 456.972 211.832C455.622 210.751 454.314 209.625 453.313 208.193C452.569 207.128 452.089 205.963 452.043 204.646C451.985 202.968 452.46 201.435 453.315 200.008C454.407 198.182 455.898 196.716 457.536 195.389C459.27 193.985 461.145 192.794 463.088 191.706C465.806 190.185 468.602 188.838 471.6 187.949C474.675 187.037 477.794 186.515 481.011 186.879C482.275 187.022 483.504 187.311 484.631 187.93C485.495 188.403 486.203 189.023 486.533 189.991C486.858 190.944 486.848 191.91 486.623 192.878C486.165 194.838 485.092 196.454 483.741 197.898C481.526 200.265 478.823 201.876 475.781 202.94C474.031 203.553 472.211 203.941 470.364 204.096C468.85 204.223 467.368 204.089 465.935 203.562C464.986 203.213 464.159 202.68 463.495 201.905C463.376 201.767 463.224 201.616 463.003 201.746C462.786 201.874 462.748 202.08 462.82 202.289C462.942 202.636 463.054 202.998 463.243 203.309C463.718 204.088 464.412 204.653 465.175 205.138C466.641 206.07 468.28 206.384 469.979 206.457C472.557 206.568 475.072 206.183 477.552 205.491C481.093 204.504 484.171 202.76 486.64 200.009C488.696 197.718 490.164 195.133 490.479 192.011C490.632 190.487 490.469 188.994 489.755 187.604C488.982 186.098 487.751 184.978 486.28 184.207C484.138 183.084 481.826 182.43 479.44 182.43H477.049C474.159 182.43 471.365 183.258 468.65 184.246C466.594 184.994 464.578 185.877 462.621 186.854C458.36 188.984 454.391 191.552 451.131 195.082C449.507 196.841 448.132 198.782 447.341 201.067C447.102 201.749 446.896 202.443 446.724 203.145M462.166 223.121C461.982 225.594 460.861 227.6 459.029 229.224C457.998 230.137 456.816 230.787 455.439 231.015C454.94 231.098 454.429 231.118 453.945 230.911C453.254 230.616 453.099 230.003 453.086 229.35C453.066 228.31 453.43 227.369 453.93 226.474C454.582 225.306 455.538 224.417 456.56 223.586C458.168 222.276 459.913 221.168 461.7 220.122L461.835 220.066C462.111 221.087 462.243 222.095 462.166 223.121ZM476.121 212.372C475.991 213.162 475.828 213.952 475.597 214.717C474.799 217.367 473.775 219.935 472.667 222.468C472.462 222.937 472.165 223.365 471.906 223.809C471.862 223.877 471.809 223.939 471.749 223.994C471.428 224.311 471.124 224.294 470.962 223.88C470.773 223.398 470.658 222.883 470.558 222.373C470.491 222.031 470.507 221.672 470.486 221.321C470.507 218.828 471.268 216.563 472.558 214.454C473.09 213.584 473.669 212.756 474.554 212.205C474.829 212.034 475.127 211.902 475.438 211.814C475.91 211.681 476.199 211.899 476.121 212.372ZM485.642 224.502L489.064 220.506C489.206 221.99 486.684 224.952 485.642 224.502ZM496.571 221.813C496.329 221.952 496.066 222.052 495.818 222.18C495.591 222.297 495.516 222.179 495.509 221.983C495.506 221.848 495.523 221.713 495.561 221.583C496.023 219.954 496.873 218.563 498.138 217.431L498.227 217.386C498.829 219.069 498.133 220.918 496.571 221.813Z" fill="#CB6699"/>
<path d="M447 341C447 363.091 429.091 381 407 381C384.909 381 367 363.091 367 341C367 318.909 384.909 301 407 301C429.091 301 447 318.909 447 341Z" fill="white"/>
<path fill-rule="evenodd" clip-rule="evenodd" d="M423.671 321.241H390.328C388.623 321.241 387.241 322.657 387.241 324.404V358.56C387.241 360.307 388.623 361.723 390.328 361.723H423.671C425.376 361.723 426.759 360.307 426.759 358.56V324.404C426.759 322.657 425.376 321.241 423.671 321.241ZM410.476 357.31V352.943C411.249 353.607 412.089 354.105 412.996 354.437C413.903 354.769 414.818 354.935 415.743 354.935C416.285 354.935 416.759 354.885 417.163 354.785C417.567 354.685 417.905 354.546 418.176 354.369C418.448 354.191 418.65 353.982 418.783 353.741C418.916 353.5 418.983 353.238 418.983 352.956C418.983 352.574 418.877 352.233 418.663 351.933C418.45 351.632 418.159 351.355 417.79 351.1C417.421 350.845 416.983 350.6 416.476 350.363C415.97 350.126 415.423 349.885 414.836 349.64C413.343 349.003 412.229 348.225 411.496 347.306C410.762 346.387 410.396 345.277 410.396 343.975C410.396 342.956 410.596 342.081 410.996 341.348C411.396 340.616 411.94 340.013 412.629 339.54C413.318 339.066 414.116 338.718 415.023 338.496C415.93 338.273 416.89 338.161 417.903 338.161C418.899 338.161 419.781 338.222 420.55 338.345C421.319 338.468 422.028 338.657 422.677 338.912V342.993C422.357 342.765 422.008 342.565 421.63 342.392C421.252 342.219 420.863 342.076 420.463 341.962C420.063 341.848 419.665 341.764 419.27 341.71C418.874 341.655 418.499 341.628 418.143 341.628C417.654 341.628 417.21 341.676 416.81 341.771C416.41 341.867 416.072 342.001 415.796 342.174C415.521 342.347 415.307 342.554 415.156 342.795C415.005 343.036 414.929 343.307 414.929 343.607C414.929 343.935 415.014 344.228 415.183 344.487C415.352 344.747 415.592 344.992 415.903 345.224C416.214 345.456 416.592 345.684 417.036 345.907C417.481 346.13 417.983 346.359 418.543 346.596C419.308 346.924 419.994 347.272 420.603 347.64C421.212 348.009 421.735 348.425 422.17 348.889C422.606 349.353 422.939 349.883 423.17 350.479C423.401 351.075 423.517 351.769 423.517 352.561C423.517 353.652 423.315 354.569 422.91 355.311C422.506 356.052 421.957 356.653 421.263 357.112C420.57 357.572 419.763 357.902 418.843 358.102C417.923 358.302 416.952 358.402 415.93 358.402C414.881 358.402 413.883 358.311 412.936 358.129C411.989 357.947 411.169 357.674 410.476 357.31ZM408.852 342.074H403.369V358.086H399.026V342.074H393.57V338.477H408.852V342.074Z" fill="#3178C6"/>
<path d="M313 317C313 354.003 283.003 384 246 384C208.997 384 179 354.003 179 317C179 279.997 208.997 250 246 250C283.003 250 313 279.997 313 317Z" fill="white"/>
<path fill-rule="evenodd" clip-rule="evenodd" d="M209.78 280.78H282.22V353.22H209.78V280.78Z" fill="#F7DF1E"/>
<path fill-rule="evenodd" clip-rule="evenodd" d="M228.827 341.316L234.371 337.961C235.44 339.857 236.413 341.462 238.747 341.462C240.984 341.462 242.394 340.587 242.394 337.183V314.037H249.201V337.28C249.201 344.33 245.068 347.54 239.039 347.54C233.593 347.54 230.432 344.72 228.827 341.316Z" fill="black"/>
<path fill-rule="evenodd" clip-rule="evenodd" d="M252.899 340.587L258.442 337.377C259.901 339.76 261.798 341.511 265.153 341.511C267.973 341.511 269.772 340.1 269.772 338.155C269.772 335.821 267.924 334.995 264.812 333.633L263.111 332.904C258.199 330.813 254.941 328.187 254.941 322.644C254.941 317.538 258.831 313.648 264.91 313.648C269.237 313.648 272.35 315.155 274.586 319.094L269.286 322.498C268.119 320.407 266.855 319.58 264.91 319.58C262.916 319.58 261.652 320.845 261.652 322.498C261.652 324.54 262.916 325.367 265.833 326.631L267.535 327.361C273.322 329.841 276.58 332.369 276.58 338.058C276.58 344.185 271.766 347.54 265.299 347.54C258.977 347.54 254.893 344.526 252.899 340.587Z" fill="black"/>
</svg>
